<svg width="677" height="24" viewBox="0 0 677 24" fill="none" xmlns="http://www.w3.org/2000/svg">
<g clip-path="url(#clip0)">
<path d="M410.125 12.5003L675.875 12.0075" stroke="#DADADA"/>
<path d="M300.037 18L299.909 16.608C299.674 17.0133 299.306 17.3707 298.805 17.68C298.303 17.9787 297.69 18.128 296.965 18.128C295.546 18.128 294.341 17.6373 293.349 16.656C292.367 15.6747 291.877 14.256 291.877 12.4C291.877 10.544 292.378 9.12533 293.381 8.144C294.383 7.16267 295.61 6.672 297.061 6.672C298.234 6.672 299.21 6.992 299.989 7.632C300.778 8.26133 301.29 9.09333 301.525 10.128L299.909 10.624C299.375 9.09867 298.426 8.336 297.061 8.336C296.058 8.336 295.242 8.688 294.613 9.392C293.983 10.0853 293.669 11.088 293.669 12.4C293.669 13.744 293.978 14.7573 294.597 15.44C295.226 16.1227 296.047 16.464 297.061 16.464C297.893 16.464 298.538 16.224 298.997 15.744C299.466 15.2533 299.738 14.64 299.813 13.904H297.637V12.352H301.573V18H300.037ZM310.776 9.888C310.776 10.656 310.584 11.296 310.2 11.808C309.827 12.32 309.294 12.6667 308.6 12.848L311.832 18H309.752L306.6 12.976H305.304V18H303.544V6.8H307.464C308.51 6.8 309.32 7.07733 309.896 7.632C310.483 8.176 310.776 8.928 310.776 9.888ZM307.512 11.312C307.96 11.312 308.318 11.1947 308.584 10.96C308.851 10.7253 308.984 10.368 308.984 9.888C308.984 9.408 308.851 9.05067 308.584 8.816C308.318 8.58133 307.96 8.464 307.512 8.464H305.304V11.312H307.512ZM316.521 6.8H318.185L322.073 18H320.281L319.353 15.216H315.353L314.425 18H312.633L316.521 6.8ZM317.353 9.024L315.881 13.552H318.825L317.353 9.024ZM323.332 6.8H326.628C328.068 6.8 329.284 7.28533 330.276 8.256C331.278 9.22667 331.78 10.608 331.78 12.4C331.78 14.192 331.278 15.5733 330.276 16.544C329.284 17.5147 328.068 18 326.628 18H323.332V6.8ZM326.116 8.464H325.092V16.336H326.116C326.638 16.336 327.118 16.272 327.556 16.144C327.993 16.016 328.398 15.808 328.772 15.52C329.156 15.232 329.454 14.8267 329.668 14.304C329.881 13.7707 329.988 13.136 329.988 12.4C329.988 11.664 329.881 11.0347 329.668 10.512C329.454 9.97867 329.156 9.568 328.772 9.28C328.398 8.992 327.993 8.784 327.556 8.656C327.118 8.528 326.638 8.464 326.116 8.464ZM333.616 13.968V6.8H335.376V14.048C335.376 14.816 335.568 15.4133 335.952 15.84C336.336 16.256 336.902 16.464 337.648 16.464C338.395 16.464 338.96 16.256 339.344 15.84C339.728 15.4133 339.92 14.816 339.92 14.048V6.8H341.68V13.968C341.68 15.28 341.302 16.304 340.544 17.04C339.798 17.7653 338.832 18.128 337.648 18.128C336.464 18.128 335.494 17.76 334.736 17.024C333.99 16.288 333.616 15.2693 333.616 13.968ZM346.412 6.8H348.076L351.964 18H350.172L349.244 15.216H345.244L344.316 18H342.524L346.412 6.8ZM347.244 9.024L345.772 13.552H348.716L347.244 9.024ZM351.052 8.464V6.8H359.084V8.464H355.948V18H354.188V8.464H351.052ZM360.468 18V6.8H362.228V18H360.468ZM365.638 8.176C366.63 7.17333 367.852 6.672 369.302 6.672C370.753 6.672 371.969 7.17333 372.95 8.176C373.942 9.168 374.438 10.576 374.438 12.4C374.438 14.224 373.942 15.6373 372.95 16.64C371.969 17.632 370.753 18.128 369.302 18.128C367.852 18.128 366.63 17.632 365.638 16.64C364.657 15.6373 364.166 14.224 364.166 12.4C364.166 10.576 364.657 9.168 365.638 8.176ZM371.686 9.376C371.057 8.68267 370.262 8.336 369.302 8.336C368.342 8.336 367.542 8.68267 366.902 9.376C366.273 10.0693 365.958 11.0773 365.958 12.4C365.958 13.7227 366.273 14.7307 366.902 15.424C367.542 16.1173 368.342 16.464 369.302 16.464C370.262 16.464 371.057 16.1173 371.686 15.424C372.326 14.7307 372.646 13.7227 372.646 12.4C372.646 11.0773 372.326 10.0693 371.686 9.376ZM382.673 6.8H384.433V18H382.545L377.953 9.968V18H376.193V6.8H378.081L382.673 14.864V6.8Z" fill="#535353"/>
<path d="M0.125 12.7464L265.875 12.2536" stroke="#DADADA"/>
</g>
<defs>
<clipPath id="clip0">
<rect width="676" height="24" fill="white" transform="translate(0.125)"/>
</clipPath>
</defs>
</svg>
