<svg width="155" height="16" viewBox="0 0 155 16" fill="none" xmlns="http://www.w3.org/2000/svg">
<path d="M0.710632 14.5914V1.0459H3.01845V6.77317H8.58438V1.0459H10.8922V14.5914H8.58438V8.81862H3.01845V14.5914H0.710632Z" fill="white"/>
<path d="M13.0643 14.5914V13.8186L17.8609 1.0459H20.1235L24.9201 13.8186V14.5914H22.6576L21.481 11.2277H16.4129L15.1911 14.5914H13.0643ZM17.0916 9.31862H20.8023L18.9922 4.13681L17.0916 9.31862Z" fill="white"/>
<path d="M27.0469 14.5914V1.0459H32.8391C35.4637 1.0459 36.9117 2.59135 36.9117 5.18226C36.9117 7.00044 36.0972 8.40953 34.5587 9.09135L37.0927 13.7732V14.5459H34.8302L32.0698 9.36408H29.4V14.5459H27.0469V14.5914ZM29.3548 7.40953H32.4319C33.8346 7.40953 34.5587 6.68226 34.5587 5.22772C34.5587 3.77317 33.8346 3.0459 32.4319 3.0459H29.3548V7.40953Z" fill="white"/>
<path d="M39.7626 14.5914V1.0459H45.419C47.8173 1.0459 49.2654 2.27317 49.2654 4.68226C49.2654 6.0459 48.7223 7.00044 47.6363 7.5459C49.0391 8.0459 49.7631 9.13681 49.7631 10.8186C49.7631 13.2732 48.3603 14.5914 45.9168 14.5914H39.7626ZM42.0704 6.86408H45.057C46.324 6.86408 46.9575 6.22772 46.9575 4.95499C46.9575 3.68226 46.324 3.09135 45.057 3.09135H42.0704V6.86408ZM42.0704 12.5459H45.5548C46.867 12.5459 47.5006 11.9095 47.5006 10.6823C47.5006 9.40953 46.867 8.77317 45.5548 8.77317H42.0704V12.5459Z" fill="white"/>
<path d="M52.1162 5.63707C52.1162 2.59162 54.1525 0.773438 57.4106 0.773438C60.6687 0.773438 62.705 2.59162 62.705 5.63707V10.0007C62.705 13.0462 60.6687 14.8643 57.4106 14.8643C54.1525 14.8643 52.1162 13.0462 52.1162 10.0007V5.63707ZM60.3972 5.50071C60.3972 3.95525 59.3564 2.86435 57.4106 2.86435C55.4648 2.86435 54.424 3.95525 54.424 5.50071V10.0916C54.424 11.6371 55.4648 12.728 57.4106 12.728C59.3564 12.728 60.3972 11.6371 60.3972 10.0916V5.50071Z" fill="white"/>
<path d="M73.4749 1.0459H75.7827V10.1823C75.7827 11.6368 75.3302 12.8186 74.3799 13.6368C73.4749 14.455 72.2079 14.8641 70.6693 14.8641C69.1308 14.8641 67.8637 14.455 66.9135 13.6368C66.0084 12.8186 65.5559 11.6368 65.5559 10.1823V1.0459H67.8637V10.2732C67.8637 11.6823 68.8593 12.7277 70.6693 12.7277C72.4794 12.7277 73.4749 11.6823 73.4749 10.2732V1.0459Z" fill="white"/>
<path d="M79.0861 14.5914V1.0459H84.8782C87.5028 1.0459 88.9509 2.59135 88.9509 5.18226C88.9509 7.00044 88.1363 8.40953 86.5978 9.09135L89.1319 13.7732V14.5459H86.8693L84.109 9.36408H81.4391V14.5459H79.0861V14.5914ZM81.3939 7.40953H84.471C85.8738 7.40953 86.5978 6.68226 86.5978 5.22772C86.5978 3.77317 85.8738 3.0459 84.471 3.0459H81.3939V7.40953Z" fill="white"/>
<path d="M97.5939 13.6821C96.5984 12.8639 96.1006 11.7275 96.1006 10.1821H98.4084C98.4084 10.8184 98.5894 11.3184 98.9062 11.7275C99.5849 12.5003 100.445 12.7275 101.486 12.7275C103.115 12.7275 104.02 12.0003 104.02 10.9548C104.02 10.4548 103.793 10.0912 103.386 9.8639C102.979 9.59118 102.21 9.22754 101.078 8.81845L100.897 8.77299L100.58 8.63663C99.1324 8.09118 98.0464 7.54572 97.4129 7.00027C96.7794 6.45481 96.4626 5.68209 96.4626 4.68209C96.4626 3.50027 96.8699 2.54572 97.7296 1.81845C98.5894 1.09118 99.8112 0.727539 101.304 0.727539C104.336 0.727539 106.327 2.18208 106.327 5.27299H104.02C104.02 3.59118 102.843 2.81845 101.304 2.81845C99.7659 2.81845 98.8157 3.50027 98.8157 4.45481C98.8157 4.95481 98.9967 5.3639 99.4039 5.63663C99.8112 5.90936 100.58 6.22754 101.712 6.63663L101.983 6.72754C102.707 7.00027 103.296 7.22754 103.703 7.40936C104.155 7.59118 104.608 7.8639 105.06 8.18209C106.011 8.81845 106.418 9.68209 106.418 10.8184C106.418 13.1821 104.608 14.8185 101.304 14.8185C99.8565 14.8639 98.6347 14.4548 97.5939 13.6821Z" fill="white"/>
<path d="M109.359 14.5914V1.0459H115.197C117.55 1.0459 118.998 2.63681 118.998 5.18226C118.998 7.72772 117.595 9.31862 115.197 9.31862H111.667V14.5459H109.359V14.5914ZM111.667 7.31862H114.789C115.83 7.31862 116.645 6.5459 116.645 5.18226C116.645 3.81863 115.875 3.0459 114.789 3.0459H111.667V7.31862Z" fill="white"/>
<path d="M119.269 14.5914V13.8186L124.066 1.0459H126.328L131.125 13.8186V14.5914H128.863L127.686 11.2277H122.618L121.396 14.5914H119.269ZM123.297 9.31862H127.007L125.197 4.13681L123.297 9.31862Z" fill="white"/>
<path d="M132.89 10.0007V5.63707C132.89 2.54616 134.791 0.773438 138.139 0.773438C139.542 0.773438 140.718 1.13707 141.669 1.95526C142.619 2.72798 143.072 3.9098 143.072 5.45526V5.63707H140.764V5.45526C140.764 4.63707 140.492 4.00071 139.949 3.54616C139.406 3.09162 138.773 2.9098 138.094 2.9098C136.148 2.9098 135.198 3.86435 135.198 5.50071V10.1825C135.198 11.8189 136.148 12.7734 138.094 12.7734C138.773 12.7734 139.406 12.5462 139.949 12.1371C140.492 11.6825 140.764 11.0462 140.764 10.228V10.0462H143.072V10.228C143.072 11.7734 142.574 12.9553 141.669 13.728C140.718 14.5007 139.542 14.9098 138.139 14.9098C134.791 14.8643 132.89 13.0916 132.89 10.0007Z" fill="white"/>
<path d="M146.013 14.5914V1.0459H154.656V3.09135H148.321V6.86408H153.751V8.81862H148.321V12.5914H154.656V14.6368H146.013V14.5914Z" fill="white"/>
<path d="M93.6118 14.5909C93.6118 14.9091 93.3403 15.1818 93.0235 15.1818C92.7067 15.1818 92.4352 14.9091 92.4352 14.5909C92.4352 14.2727 92.7067 14 93.0235 14C93.3855 14 93.6118 14.2727 93.6118 14.5909Z" fill="white"/>
</svg>
