<svg width="1440" height="87" viewBox="0 0 1440 87" fill="none" xmlns="http://www.w3.org/2000/svg">
<rect x="0.5" y="0.5" width="1439" height="85.083" fill="white" stroke="#DADADA"/>
<g clip-path="url(#clip0)">
<path d="M309.44 50.8H313.04C314.021 50.8 314.784 51.056 315.328 51.568C315.883 52.0693 316.16 52.768 316.16 53.664C316.16 54.24 316.027 54.7093 315.76 55.072C315.504 55.424 315.168 55.6907 314.752 55.872C315.36 56.0853 315.84 56.432 316.192 56.912C316.555 57.392 316.736 58.0107 316.736 58.768C316.736 59.7493 316.427 60.5333 315.808 61.12C315.189 61.7067 314.352 62 313.296 62H309.44V50.8ZM313.04 55.536C313.701 55.536 314.203 55.3813 314.544 55.072C314.896 54.752 315.072 54.2827 315.072 53.664C315.072 53.0453 314.896 52.5813 314.544 52.272C314.203 51.952 313.701 51.792 313.04 51.792H310.496V55.536H313.04ZM313.088 61.008C313.931 61.008 314.565 60.8373 314.992 60.496C315.419 60.144 315.632 59.568 315.632 58.768C315.632 57.968 315.419 57.3973 314.992 57.056C314.565 56.704 313.931 56.528 313.088 56.528H310.496V61.008H313.088ZM320.808 62.128C320.072 62.128 319.47 61.9307 319 61.536C318.531 61.1307 318.296 60.512 318.296 59.68C318.296 58.8053 318.616 58.1493 319.256 57.712C319.907 57.264 320.808 57.04 321.96 57.04H323.352V56.688C323.352 56.016 323.187 55.5253 322.856 55.216C322.526 54.896 322.072 54.736 321.496 54.736C320.974 54.736 320.552 54.8747 320.232 55.152C319.923 55.4293 319.704 55.792 319.576 56.24L318.616 56.016C318.723 55.344 319.043 54.8107 319.576 54.416C320.12 54.0107 320.76 53.808 321.496 53.808C322.318 53.808 322.995 54.064 323.528 54.576C324.072 55.0773 324.344 55.7707 324.344 56.656V62H323.592L323.352 60.752C323.107 61.168 322.771 61.504 322.344 61.76C321.928 62.0053 321.416 62.128 320.808 62.128ZM320.904 61.2C321.288 61.2 321.667 61.104 322.04 60.912C322.414 60.7093 322.723 60.3893 322.968 59.952C323.224 59.5147 323.352 58.9547 323.352 58.272V57.968H321.992C321.096 57.968 320.43 58.1173 319.992 58.416C319.555 58.7147 319.336 59.136 319.336 59.68C319.336 60.1707 319.475 60.5493 319.752 60.816C320.03 61.072 320.414 61.2 320.904 61.2ZM326.491 53.936H327.483V55.616C327.76 55.072 328.144 54.6347 328.635 54.304C329.136 53.9733 329.675 53.808 330.251 53.808C331.019 53.808 331.621 54.0427 332.059 54.512C332.507 54.9707 332.731 55.6213 332.731 56.464V62H331.739V56.592C331.739 55.9947 331.6 55.536 331.323 55.216C331.056 54.896 330.645 54.736 330.091 54.736C329.6 54.736 329.157 54.8907 328.763 55.2C328.368 55.4987 328.053 55.9307 327.819 56.496C327.595 57.0613 327.483 57.7173 327.483 58.464V62H326.491V53.936ZM337.582 65.392C336.558 65.392 335.747 65.1573 335.15 64.688C334.552 64.2187 334.254 63.568 334.254 62.736C334.254 62.3627 334.328 62.032 334.478 61.744C334.638 61.456 334.84 61.2213 335.086 61.04C334.659 60.784 334.446 60.3467 334.446 59.728C334.446 59.408 334.536 59.1253 334.718 58.88C334.899 58.624 335.139 58.4267 335.438 58.288C335.246 58.0533 335.096 57.7867 334.99 57.488C334.883 57.1787 334.83 56.8533 334.83 56.512C334.83 55.9787 334.947 55.5093 335.182 55.104C335.427 54.688 335.758 54.368 336.174 54.144C336.59 53.92 337.054 53.808 337.566 53.808C338.056 53.808 338.52 53.9307 338.958 54.176L340.398 53.36L340.862 54.208L339.742 54.832C340.115 55.312 340.302 55.872 340.302 56.512C340.302 57.0453 340.179 57.52 339.934 57.936C339.699 58.3413 339.374 58.656 338.958 58.88C338.542 59.104 338.078 59.216 337.566 59.216C336.99 59.216 336.488 59.088 336.062 58.832C335.624 59.024 335.406 59.3227 335.406 59.728C335.406 59.9947 335.496 60.192 335.678 60.32C335.87 60.4373 336.11 60.496 336.398 60.496H338.478C339.214 60.496 339.8 60.672 340.238 61.024C340.675 61.3653 340.894 61.8933 340.894 62.608C340.894 63.5573 340.59 64.256 339.982 64.704C339.384 65.1627 338.584 65.392 337.582 65.392ZM337.566 58.352C338.056 58.352 338.467 58.1867 338.798 57.856C339.139 57.5253 339.31 57.0773 339.31 56.512C339.31 55.9467 339.139 55.4987 338.798 55.168C338.467 54.8373 338.056 54.672 337.566 54.672C337.075 54.672 336.659 54.8373 336.318 55.168C335.987 55.4987 335.822 55.9467 335.822 56.512C335.822 57.0773 335.987 57.5253 336.318 57.856C336.659 58.1867 337.075 58.352 337.566 58.352ZM337.582 64.496C338.339 64.496 338.92 64.3307 339.326 64C339.731 63.68 339.934 63.2587 339.934 62.736C339.934 61.8187 339.411 61.36 338.366 61.36H336.718C336.43 61.36 336.168 61.344 335.934 61.312C335.454 61.6213 335.214 62.1067 335.214 62.768C335.214 63.3013 335.411 63.7227 335.806 64.032C336.211 64.3413 336.803 64.496 337.582 64.496ZM342.405 50.672H343.397V57.504L346.773 53.936H348.021L344.533 57.632L348.309 62H347.045L343.397 57.76V62H342.405V50.672ZM352.4 62.128C351.643 62.128 350.976 61.936 350.4 61.552C349.835 61.1573 349.398 60.64 349.088 60C348.779 59.36 348.624 58.6827 348.624 57.968C348.624 57.2533 348.779 56.576 349.088 55.936C349.398 55.296 349.835 54.784 350.4 54.4C350.976 54.0053 351.643 53.808 352.4 53.808C353.158 53.808 353.819 54.0053 354.384 54.4C354.96 54.784 355.403 55.296 355.712 55.936C356.022 56.576 356.176 57.2533 356.176 57.968C356.176 58.6827 356.022 59.36 355.712 60C355.403 60.64 354.96 61.1573 354.384 61.552C353.819 61.936 353.158 62.128 352.4 62.128ZM352.4 61.2C352.976 61.2 353.467 61.0507 353.872 60.752C354.288 60.4427 354.603 60.0427 354.816 59.552C355.03 59.0507 355.136 58.5227 355.136 57.968C355.136 57.4133 355.03 56.8907 354.816 56.4C354.603 55.8987 354.288 55.4987 353.872 55.2C353.467 54.8907 352.976 54.736 352.4 54.736C351.824 54.736 351.328 54.8907 350.912 55.2C350.507 55.4987 350.198 55.8987 349.984 56.4C349.771 56.8907 349.664 57.4133 349.664 57.968C349.664 58.5227 349.771 59.0507 349.984 59.552C350.198 60.0427 350.507 60.4427 350.912 60.752C351.328 61.0507 351.824 61.2 352.4 61.2ZM358.038 50.672H359.03V57.504L362.406 53.936H363.654L360.166 57.632L363.942 62H362.678L359.03 57.76V62H358.038V50.672Z" fill="#535353"/>
<path d="M309.504 27.8H311.264V37.336H316.096V39H309.504V27.8ZM318.023 37.928C317.308 37.128 316.951 36.1413 316.951 34.968C316.951 33.7947 317.308 32.808 318.023 32.008C318.748 31.208 319.714 30.808 320.919 30.808C322.124 30.808 323.084 31.208 323.799 32.008C324.524 32.808 324.887 33.7947 324.887 34.968C324.887 36.1413 324.524 37.128 323.799 37.928C323.084 38.728 322.124 39.128 320.919 39.128C319.714 39.128 318.748 38.728 318.023 37.928ZM319.287 33.08C318.903 33.6027 318.711 34.232 318.711 34.968C318.711 35.704 318.903 36.3387 319.287 36.872C319.682 37.3947 320.226 37.656 320.919 37.656C321.612 37.656 322.151 37.3947 322.535 36.872C322.93 36.3387 323.127 35.704 323.127 34.968C323.127 34.232 322.93 33.6027 322.535 33.08C322.151 32.5467 321.612 32.28 320.919 32.28C320.226 32.28 319.682 32.5467 319.287 33.08ZM332.035 36.264L333.523 36.904C332.872 38.3867 331.71 39.128 330.035 39.128C328.819 39.128 327.88 38.7333 327.219 37.944C326.568 37.144 326.243 36.152 326.243 34.968C326.243 33.784 326.568 32.7973 327.219 32.008C327.88 31.208 328.819 30.808 330.035 30.808C331.71 30.808 332.872 31.5493 333.523 33.032L332.035 33.672C331.619 32.744 330.952 32.28 330.035 32.28C329.352 32.28 328.84 32.5253 328.499 33.016C328.168 33.5067 328.003 34.1573 328.003 34.968C328.003 35.7787 328.168 36.4293 328.499 36.92C328.84 37.4107 329.352 37.656 330.035 37.656C330.952 37.656 331.619 37.192 332.035 36.264ZM334.658 36.68C334.658 35.8587 334.978 35.2133 335.618 34.744C336.258 34.2747 337.101 34.04 338.146 34.04H339.538V33.688C339.538 33.208 339.389 32.856 339.09 32.632C338.802 32.3973 338.429 32.28 337.97 32.28C337.234 32.28 336.733 32.6373 336.466 33.352L334.946 33.032C335.117 32.3493 335.474 31.8107 336.018 31.416C336.562 31.0107 337.218 30.808 337.986 30.808C340.13 30.808 341.202 31.8693 341.202 33.992V39H339.794L339.634 37.944C339.069 38.7333 338.237 39.128 337.138 39.128C336.424 39.128 335.832 38.92 335.362 38.504C334.893 38.088 334.658 37.48 334.658 36.68ZM336.418 36.68C336.418 36.968 336.504 37.2027 336.674 37.384C336.845 37.5653 337.096 37.656 337.426 37.656C337.992 37.656 338.482 37.48 338.898 37.128C339.325 36.7653 339.538 36.2587 339.538 35.608V35.432H338.082C337.57 35.432 337.165 35.544 336.866 35.768C336.568 35.992 336.418 36.296 336.418 36.68ZM342.317 32.408V30.936H343.661V28.712L345.325 27.672V30.936H347.421V32.408H345.325V36.344C345.325 37.2187 345.682 37.656 346.397 37.656C346.663 37.656 346.919 37.5813 347.165 37.432L347.597 38.84C347.202 39.032 346.77 39.128 346.301 39.128C345.501 39.128 344.861 38.888 344.381 38.408C343.901 37.9173 343.661 37.1973 343.661 36.248V32.408H342.317ZM349.147 29.48C348.934 29.256 348.827 28.984 348.827 28.664C348.827 28.344 348.939 28.072 349.163 27.848C349.387 27.6133 349.659 27.496 349.979 27.496C350.299 27.496 350.571 27.6133 350.795 27.848C351.019 28.072 351.131 28.344 351.131 28.664C351.131 28.984 351.019 29.256 350.795 29.48C350.582 29.6933 350.31 29.8 349.979 29.8C349.648 29.8 349.371 29.6933 349.147 29.48ZM349.147 30.936H350.811V39H349.147V30.936ZM353.53 37.928C352.815 37.128 352.458 36.1413 352.458 34.968C352.458 33.7947 352.815 32.808 353.53 32.008C354.255 31.208 355.221 30.808 356.426 30.808C357.631 30.808 358.591 31.208 359.306 32.008C360.031 32.808 360.394 33.7947 360.394 34.968C360.394 36.1413 360.031 37.128 359.306 37.928C358.591 38.728 357.631 39.128 356.426 39.128C355.221 39.128 354.255 38.728 353.53 37.928ZM354.794 33.08C354.41 33.6027 354.218 34.232 354.218 34.968C354.218 35.704 354.41 36.3387 354.794 36.872C355.189 37.3947 355.733 37.656 356.426 37.656C357.119 37.656 357.658 37.3947 358.042 36.872C358.437 36.3387 358.634 35.704 358.634 34.968C358.634 34.232 358.437 33.6027 358.042 33.08C357.658 32.5467 357.119 32.28 356.426 32.28C355.733 32.28 355.189 32.5467 354.794 33.08ZM362.092 30.936H363.756V32.312C364.044 31.832 364.418 31.464 364.876 31.208C365.335 30.9413 365.831 30.808 366.364 30.808C367.079 30.808 367.65 31.0213 368.076 31.448C368.514 31.864 368.732 32.456 368.732 33.224V39H367.068V33.752C367.068 32.7707 366.652 32.28 365.82 32.28C365.266 32.28 364.78 32.5947 364.364 33.224C363.959 33.8427 363.756 34.68 363.756 35.736V39H362.092V30.936Z" fill="#535353"/>
</g>
<g clip-path="url(#clip1)">
<path d="M436.688 52.384L434.832 53.552V52.448L437.424 50.8H437.68V62H436.688V52.384ZM446.404 57.136L443.028 50.8H444.26L446.932 56.096L449.604 50.8H450.836L447.46 57.136V62H446.404V57.136ZM454.091 62.128C453.387 62.128 452.763 61.952 452.219 61.6C451.675 61.2373 451.253 60.7413 450.955 60.112C450.656 59.4827 450.507 58.768 450.507 57.968C450.507 57.168 450.656 56.4533 450.955 55.824C451.253 55.1947 451.675 54.704 452.219 54.352C452.763 53.9893 453.387 53.808 454.091 53.808C454.773 53.808 455.381 53.9627 455.915 54.272C456.459 54.5813 456.88 55.0187 457.179 55.584C457.477 56.1387 457.627 56.784 457.627 57.52V57.968H451.547C451.547 58.928 451.771 59.7067 452.219 60.304C452.677 60.9013 453.301 61.2 454.091 61.2C454.699 61.2 455.189 61.0667 455.563 60.8C455.936 60.5333 456.272 60.0907 456.571 59.472L457.451 59.904C457.045 60.704 456.576 61.2747 456.043 61.616C455.509 61.9573 454.859 62.128 454.091 62.128ZM456.603 57.04C456.507 56.3253 456.24 55.7653 455.803 55.36C455.376 54.944 454.805 54.736 454.091 54.736C453.44 54.736 452.896 54.9493 452.459 55.376C452.032 55.8027 451.749 56.3573 451.611 57.04H456.603ZM461.485 62.128C460.749 62.128 460.146 61.9307 459.677 61.536C459.207 61.1307 458.973 60.512 458.973 59.68C458.973 58.8053 459.293 58.1493 459.933 57.712C460.583 57.264 461.485 57.04 462.637 57.04H464.029V56.688C464.029 56.016 463.863 55.5253 463.533 55.216C463.202 54.896 462.749 54.736 462.173 54.736C461.65 54.736 461.229 54.8747 460.909 55.152C460.599 55.4293 460.381 55.792 460.253 56.24L459.293 56.016C459.399 55.344 459.719 54.8107 460.253 54.416C460.797 54.0107 461.437 53.808 462.173 53.808C462.994 53.808 463.671 54.064 464.205 54.576C464.749 55.0773 465.021 55.7707 465.021 56.656V62H464.269L464.029 60.752C463.783 61.168 463.447 61.504 463.021 61.76C462.605 62.0053 462.093 62.128 461.485 62.128ZM461.581 61.2C461.965 61.2 462.343 61.104 462.717 60.912C463.09 60.7093 463.399 60.3893 463.645 59.952C463.901 59.5147 464.029 58.9547 464.029 58.272V57.968H462.669C461.773 57.968 461.106 58.1173 460.669 58.416C460.231 58.7147 460.013 59.136 460.013 59.68C460.013 60.1707 460.151 60.5493 460.429 60.816C460.706 61.072 461.09 61.2 461.581 61.2ZM467.167 53.936H468.159V55.376C468.404 54.8747 468.724 54.4907 469.119 54.224C469.524 53.9467 469.993 53.808 470.527 53.808C470.74 53.808 470.937 53.8293 471.119 53.872C471.311 53.9147 471.519 53.984 471.743 54.08L471.519 55.024C471.167 54.832 470.788 54.736 470.383 54.736C469.967 54.736 469.588 54.896 469.247 55.216C468.916 55.5253 468.649 55.9947 468.447 56.624C468.255 57.2427 468.159 57.9947 468.159 58.88V62H467.167V53.936ZM477.148 50.8H483.58V51.792H478.204V55.664H482.62V56.656H478.204V62H477.148V50.8ZM487.339 62.128C486.571 62.128 485.963 61.8987 485.515 61.44C485.077 60.9707 484.859 60.3147 484.859 59.472V53.936H485.851V59.344C485.851 59.9413 485.984 60.4 486.251 60.72C486.528 61.04 486.944 61.2 487.499 61.2C487.989 61.2 488.432 61.0507 488.827 60.752C489.221 60.4427 489.531 60.0053 489.755 59.44C489.989 58.8747 490.107 58.2187 490.107 57.472V53.936H491.099V62H490.107V60.32C489.829 60.864 489.44 61.3013 488.939 61.632C488.448 61.9627 487.915 62.128 487.339 62.128ZM493.433 50.672H494.425V62H493.433V50.672ZM496.757 50.672H497.749V62H496.757V50.672ZM499.954 56.48H505.218V57.376H499.954V56.48ZM509.357 51.792H506.013V50.8H513.757V51.792H510.413V62H509.357V51.792ZM515.82 52.432C515.586 52.432 515.388 52.3573 515.228 52.208C515.079 52.048 515.004 51.8507 515.004 51.616C515.004 51.3813 515.079 51.1893 515.228 51.04C515.388 50.88 515.586 50.8 515.82 50.8C516.055 50.8 516.247 50.88 516.396 51.04C516.556 51.1893 516.636 51.3813 516.636 51.616C516.636 51.8507 516.556 52.048 516.396 52.208C516.247 52.3573 516.055 52.432 515.82 52.432ZM515.324 53.936H516.316V62H515.324V53.936ZM518.649 53.936H519.641V55.616C519.897 55.0613 520.243 54.624 520.681 54.304C521.129 53.9733 521.635 53.808 522.201 53.808C523.417 53.808 524.147 54.4053 524.393 55.6C524.67 55.0773 525.043 54.6507 525.513 54.32C525.993 53.9787 526.499 53.808 527.033 53.808C527.811 53.808 528.382 54.0267 528.745 54.464C529.118 54.9013 529.305 55.568 529.305 56.464V62H528.313V56.592C528.313 55.9627 528.206 55.4987 527.993 55.2C527.779 54.8907 527.406 54.736 526.873 54.736C526.435 54.736 526.03 54.8907 525.657 55.2C525.294 55.4987 525.006 55.9307 524.793 56.496C524.579 57.0613 524.473 57.7173 524.473 58.464V62H523.481V56.592C523.481 55.9627 523.374 55.4987 523.161 55.2C522.947 54.8907 522.574 54.736 522.041 54.736C521.603 54.736 521.198 54.8907 520.825 55.2C520.462 55.4987 520.174 55.9307 519.961 56.496C519.747 57.0613 519.641 57.7173 519.641 58.464V62H518.649V53.936ZM534.749 62.128C534.045 62.128 533.421 61.952 532.877 61.6C532.333 61.2373 531.912 60.7413 531.613 60.112C531.314 59.4827 531.165 58.768 531.165 57.968C531.165 57.168 531.314 56.4533 531.613 55.824C531.912 55.1947 532.333 54.704 532.877 54.352C533.421 53.9893 534.045 53.808 534.749 53.808C535.432 53.808 536.04 53.9627 536.573 54.272C537.117 54.5813 537.538 55.0187 537.837 55.584C538.136 56.1387 538.285 56.784 538.285 57.52V57.968H532.205C532.205 58.928 532.429 59.7067 532.877 60.304C533.336 60.9013 533.96 61.2 534.749 61.2C535.357 61.2 535.848 61.0667 536.221 60.8C536.594 60.5333 536.93 60.0907 537.229 59.472L538.109 59.904C537.704 60.704 537.234 61.2747 536.701 61.616C536.168 61.9573 535.517 62.128 534.749 62.128ZM537.261 57.04C537.165 56.3253 536.898 55.7653 536.461 55.36C536.034 54.944 535.464 54.736 534.749 54.736C534.098 54.736 533.554 54.9493 533.117 55.376C532.69 55.8027 532.408 56.3573 532.269 57.04H537.261Z" fill="#535353"/>
<path d="M435.504 27.8H438.8C440.24 27.8 441.456 28.2853 442.448 29.256C443.451 30.2267 443.952 31.608 443.952 33.4C443.952 35.192 443.451 36.5733 442.448 37.544C441.456 38.5147 440.24 39 438.8 39H435.504V27.8ZM438.288 29.464H437.264V37.336H438.288C438.811 37.336 439.291 37.272 439.728 37.144C440.165 37.016 440.571 36.808 440.944 36.52C441.328 36.232 441.627 35.8267 441.84 35.304C442.053 34.7707 442.16 34.136 442.16 33.4C442.16 32.664 442.053 32.0347 441.84 31.512C441.627 30.9787 441.328 30.568 440.944 30.28C440.571 29.992 440.165 29.784 439.728 29.656C439.291 29.528 438.811 29.464 438.288 29.464ZM452.368 39H450.704V37.624C450.416 38.104 450.043 38.4773 449.584 38.744C449.125 39 448.629 39.128 448.096 39.128C447.381 39.128 446.805 38.92 446.368 38.504C445.941 38.0773 445.728 37.48 445.728 36.712V30.936H447.392V36.184C447.392 37.1653 447.808 37.656 448.64 37.656C449.195 37.656 449.675 37.3467 450.08 36.728C450.496 36.0987 450.704 35.256 450.704 34.2V30.936H452.368V39ZM456.265 39H454.601V30.936H456.265V32.28C456.531 31.8107 456.883 31.448 457.321 31.192C457.758 30.936 458.201 30.808 458.649 30.808C459.011 30.808 459.353 30.872 459.673 31L459.385 32.52C459.129 32.36 458.814 32.28 458.441 32.28C457.854 32.28 457.342 32.6053 456.905 33.256C456.478 33.896 456.265 34.8133 456.265 36.008V39ZM460.158 36.68C460.158 35.8587 460.478 35.2133 461.118 34.744C461.758 34.2747 462.601 34.04 463.646 34.04H465.038V33.688C465.038 33.208 464.889 32.856 464.59 32.632C464.302 32.3973 463.929 32.28 463.47 32.28C462.734 32.28 462.233 32.6373 461.966 33.352L460.446 33.032C460.617 32.3493 460.974 31.8107 461.518 31.416C462.062 31.0107 462.718 30.808 463.486 30.808C465.63 30.808 466.702 31.8693 466.702 33.992V39H465.294L465.134 37.944C464.569 38.7333 463.737 39.128 462.638 39.128C461.924 39.128 461.332 38.92 460.862 38.504C460.393 38.088 460.158 37.48 460.158 36.68ZM461.918 36.68C461.918 36.968 462.004 37.2027 462.174 37.384C462.345 37.5653 462.596 37.656 462.926 37.656C463.492 37.656 463.982 37.48 464.398 37.128C464.825 36.7653 465.038 36.2587 465.038 35.608V35.432H463.582C463.07 35.432 462.665 35.544 462.366 35.768C462.068 35.992 461.918 36.296 461.918 36.68ZM467.817 32.408V30.936H469.161V28.712L470.825 27.672V30.936H472.921V32.408H470.825V36.344C470.825 37.2187 471.182 37.656 471.897 37.656C472.163 37.656 472.419 37.5813 472.665 37.432L473.097 38.84C472.702 39.032 472.27 39.128 471.801 39.128C471.001 39.128 470.361 38.888 469.881 38.408C469.401 37.9173 469.161 37.1973 469.161 36.248V32.408H467.817ZM474.647 29.48C474.434 29.256 474.327 28.984 474.327 28.664C474.327 28.344 474.439 28.072 474.663 27.848C474.887 27.6133 475.159 27.496 475.479 27.496C475.799 27.496 476.071 27.6133 476.295 27.848C476.519 28.072 476.631 28.344 476.631 28.664C476.631 28.984 476.519 29.256 476.295 29.48C476.082 29.6933 475.81 29.8 475.479 29.8C475.148 29.8 474.871 29.6933 474.647 29.48ZM474.647 30.936H476.311V39H474.647V30.936ZM479.03 37.928C478.315 37.128 477.958 36.1413 477.958 34.968C477.958 33.7947 478.315 32.808 479.03 32.008C479.755 31.208 480.721 30.808 481.926 30.808C483.131 30.808 484.091 31.208 484.806 32.008C485.531 32.808 485.894 33.7947 485.894 34.968C485.894 36.1413 485.531 37.128 484.806 37.928C484.091 38.728 483.131 39.128 481.926 39.128C480.721 39.128 479.755 38.728 479.03 37.928ZM480.294 33.08C479.91 33.6027 479.718 34.232 479.718 34.968C479.718 35.704 479.91 36.3387 480.294 36.872C480.689 37.3947 481.233 37.656 481.926 37.656C482.619 37.656 483.158 37.3947 483.542 36.872C483.937 36.3387 484.134 35.704 484.134 34.968C484.134 34.232 483.937 33.6027 483.542 33.08C483.158 32.5467 482.619 32.28 481.926 32.28C481.233 32.28 480.689 32.5467 480.294 33.08ZM487.592 30.936H489.256V32.312C489.544 31.832 489.918 31.464 490.376 31.208C490.835 30.9413 491.331 30.808 491.864 30.808C492.579 30.808 493.15 31.0213 493.576 31.448C494.014 31.864 494.232 32.456 494.232 33.224V39H492.568V33.752C492.568 32.7707 492.152 32.28 491.32 32.28C490.766 32.28 490.28 32.5947 489.864 33.224C489.459 33.8427 489.256 34.68 489.256 35.736V39H487.592V30.936Z" fill="#535353"/>
</g>
<g clip-path="url(#clip2)">
<path d="M604.008 58.928C604.216 60.992 605.64 62.128 607.448 62.128C609.656 62.128 610.984 60.672 610.984 58.576C610.984 56.304 609.448 55.04 607.816 55.04C607.72 55.04 607.496 55.056 607.4 55.088L610.424 51.072V50.8H604.568V51.696H608.872L605.976 55.568L606.456 56.192C606.76 56 607.112 55.904 607.448 55.904C609.032 55.904 609.96 56.848 609.96 58.576C609.96 60.192 609.096 61.232 607.448 61.232C605.976 61.232 605.16 60.208 605 58.784L604.008 58.928ZM620.091 50.8L616.043 62H617.131L618.251 58.816H622.859L623.979 62H625.067L621.019 50.8H620.091ZM620.555 52.24L622.523 57.824H618.587L620.555 52.24ZM626.319 59.472C626.319 61.168 627.279 62.128 628.799 62.128C629.967 62.128 631.023 61.376 631.567 60.32V62H632.559V53.936H631.567V57.472C631.567 59.76 630.431 61.2 628.959 61.2C627.839 61.2 627.311 60.512 627.311 59.344V53.936H626.319V59.472ZM635.222 56.512C635.222 57.216 635.462 57.84 635.83 58.288C635.27 58.544 634.838 59.056 634.838 59.728C634.838 60.384 635.078 60.8 635.478 61.04C635.03 61.376 634.646 61.952 634.646 62.736C634.646 64.4 635.926 65.392 637.974 65.392C639.846 65.392 641.286 64.592 641.286 62.608C641.286 61.12 640.262 60.496 638.87 60.496H636.79C636.278 60.496 635.798 60.304 635.798 59.728C635.798 59.344 635.974 59.04 636.454 58.832C636.886 59.088 637.398 59.216 637.958 59.216C639.494 59.216 640.694 58.16 640.694 56.512C640.694 55.84 640.486 55.28 640.134 54.832L641.254 54.208L640.79 53.36L639.35 54.176C638.95 53.952 638.47 53.808 637.958 53.808C636.422 53.808 635.222 54.88 635.222 56.512ZM638.758 61.36C639.702 61.36 640.326 61.728 640.326 62.736C640.326 63.728 639.558 64.496 637.974 64.496C636.374 64.496 635.606 63.808 635.606 62.768C635.606 62.224 635.782 61.664 636.326 61.312C636.566 61.344 636.822 61.36 637.11 61.36H638.758ZM636.214 56.512C636.214 55.344 637.03 54.672 637.958 54.672C638.886 54.672 639.702 55.344 639.702 56.512C639.702 57.68 638.886 58.352 637.958 58.352C637.03 58.352 636.214 57.68 636.214 56.512ZM646.537 62H653.161V61.104H648.105L651.529 56.672C652.313 55.664 652.889 54.736 652.889 53.648C652.889 51.712 651.577 50.672 649.881 50.672C648.169 50.672 646.937 51.904 646.777 53.648L647.705 53.824C647.897 52.528 648.713 51.568 649.881 51.568C651.113 51.568 651.865 52.352 651.865 53.616C651.865 54.56 651.625 55.056 650.617 56.352L646.537 61.632V62ZM658.699 50.672C656.123 50.672 654.843 52.976 654.843 56.4C654.843 59.824 656.123 62.128 658.699 62.128C661.275 62.128 662.555 59.824 662.555 56.4C662.555 52.976 661.275 50.672 658.699 50.672ZM658.699 51.568C660.507 51.568 661.531 53.568 661.531 56.4C661.531 59.232 660.507 61.232 658.699 61.232C656.891 61.232 655.867 59.232 655.867 56.4C655.867 53.568 656.891 51.568 658.699 51.568ZM664.154 62H670.778V61.104H665.722L669.146 56.672C669.93 55.664 670.506 54.736 670.506 53.648C670.506 51.712 669.194 50.672 667.498 50.672C665.786 50.672 664.554 51.904 664.394 53.648L665.322 53.824C665.514 52.528 666.33 51.568 667.498 51.568C668.73 51.568 669.482 52.352 669.482 53.616C669.482 54.56 669.242 55.056 668.234 56.352L664.154 61.632V62ZM676.316 50.672C673.74 50.672 672.46 52.976 672.46 56.4C672.46 59.824 673.74 62.128 676.316 62.128C678.892 62.128 680.172 59.824 680.172 56.4C680.172 52.976 678.892 50.672 676.316 50.672ZM676.316 51.568C678.124 51.568 679.148 53.568 679.148 56.4C679.148 59.232 678.124 61.232 676.316 61.232C674.508 61.232 673.484 59.232 673.484 56.4C673.484 53.568 674.508 51.568 676.316 51.568Z" fill="#535353"/>
<path d="M610.264 29.56C609.672 28.504 608.712 27.672 607.176 27.672C605.544 27.672 604.248 28.92 604.248 30.616C604.248 34.072 609.016 33.592 609.016 35.784C609.016 36.776 608.312 37.464 607.304 37.464C606.024 37.464 605.368 36.344 605.048 35.096L603.608 36.008C604.008 37.8 605.336 39.128 607.304 39.128C609.32 39.128 610.808 37.768 610.808 35.72C610.808 32.264 606.008 32.696 606.008 30.488C606.008 29.832 606.456 29.272 607.176 29.272C607.832 29.272 608.392 29.656 608.84 30.504L610.264 29.56ZM611.612 32.408H612.956V36.248C612.956 38.232 614.076 39.128 615.596 39.128C616.044 39.128 616.46 39.048 616.892 38.84L616.46 37.432C616.172 37.608 615.98 37.656 615.692 37.656C614.956 37.656 614.62 37.256 614.62 36.344V32.408H616.716V30.936H614.62V27.672L612.956 28.712V30.936H611.612V32.408ZM617.944 36.68C617.944 38.36 619.08 39.128 620.424 39.128C621.56 39.128 622.392 38.68 622.92 37.944L623.08 39H624.488V33.992C624.488 31.624 623.144 30.808 621.272 30.808C619.72 30.808 618.568 31.672 618.232 33.032L619.752 33.352C620.024 32.632 620.6 32.28 621.256 32.28C622.104 32.28 622.824 32.68 622.824 33.688V34.04H621.432C619.368 34.04 617.944 35.016 617.944 36.68ZM619.704 36.68C619.704 35.912 620.344 35.432 621.368 35.432H622.824V35.608C622.824 37 621.736 37.656 620.712 37.656C620.008 37.656 619.704 37.224 619.704 36.68ZM628.057 39V36.008C628.057 33.464 629.161 32.28 630.233 32.28C630.569 32.28 630.921 32.36 631.177 32.52L631.465 31C631.225 30.904 630.873 30.808 630.441 30.808C629.577 30.808 628.617 31.32 628.057 32.28V30.936H626.393V39H628.057ZM632.707 32.408H634.051V36.248C634.051 38.232 635.171 39.128 636.691 39.128C637.139 39.128 637.555 39.048 637.987 38.84L637.555 37.432C637.267 37.608 637.075 37.656 636.787 37.656C636.051 37.656 635.715 37.256 635.715 36.344V32.408H637.811V30.936H635.715V27.672L634.051 28.712V30.936H632.707V32.408ZM643.146 34.968C643.146 37.544 644.362 39.128 646.746 39.128C647.802 39.128 648.666 38.536 648.938 38.072V39H650.602V27.672H648.938V31.832C648.57 31.304 647.578 30.808 646.778 30.808C644.362 30.808 643.146 32.472 643.146 34.968ZM644.906 34.968C644.906 33.304 645.77 32.28 646.97 32.28C648.17 32.28 649.034 33.304 649.034 34.968C649.034 36.632 648.17 37.656 646.97 37.656C645.77 37.656 644.906 36.632 644.906 34.968ZM652.264 36.68C652.264 38.36 653.4 39.128 654.744 39.128C655.88 39.128 656.712 38.68 657.24 37.944L657.4 39H658.808V33.992C658.808 31.624 657.464 30.808 655.592 30.808C654.04 30.808 652.888 31.672 652.552 33.032L654.072 33.352C654.344 32.632 654.92 32.28 655.576 32.28C656.424 32.28 657.144 32.68 657.144 33.688V34.04H655.752C653.688 34.04 652.264 35.016 652.264 36.68ZM654.024 36.68C654.024 35.912 654.664 35.432 655.688 35.432H657.144V35.608C657.144 37 656.056 37.656 655.032 37.656C654.328 37.656 654.024 37.224 654.024 36.68ZM659.922 32.408H661.266V36.248C661.266 38.232 662.386 39.128 663.906 39.128C664.354 39.128 664.77 39.048 665.202 38.84L664.77 37.432C664.482 37.608 664.29 37.656 664.002 37.656C663.266 37.656 662.93 37.256 662.93 36.344V32.408H665.026V30.936H662.93V27.672L661.266 28.712V30.936H659.922V32.408ZM669.954 32.28C671.154 32.28 671.762 33.144 671.906 34.04H667.986C668.162 33.032 668.85 32.28 669.954 32.28ZM673.666 34.712C673.666 32.904 672.53 30.808 669.954 30.808C667.298 30.808 666.194 33.048 666.194 34.968C666.194 36.888 667.298 39.128 669.954 39.128C671.794 39.128 672.706 38.376 673.49 36.856L672.066 36.296C671.65 37.176 670.818 37.656 669.954 37.656C668.642 37.656 667.954 36.616 667.954 35.432H673.666V34.712Z" fill="#535353"/>
</g>
<g clip-path="url(#clip3)">
<path d="M746.208 62.128C745.28 62.128 744.501 61.8453 743.872 61.28C743.243 60.7147 742.875 59.9307 742.768 58.928L743.76 58.784C743.845 59.5307 744.096 60.128 744.512 60.576C744.928 61.0133 745.493 61.232 746.208 61.232C747.019 61.232 747.637 60.9973 748.064 60.528C748.501 60.048 748.72 59.3973 748.72 58.576C748.72 57.712 748.501 57.0507 748.064 56.592C747.627 56.1333 747.008 55.904 746.208 55.904C745.856 55.904 745.525 56 745.216 56.192L744.736 55.568L747.632 51.696H743.328V50.8H749.184V51.072L746.16 55.088C746.256 55.056 746.395 55.04 746.576 55.04C747.131 55.04 747.648 55.1787 748.128 55.456C748.619 55.7333 749.008 56.144 749.296 56.688C749.595 57.2213 749.744 57.8507 749.744 58.576C749.744 59.2693 749.6 59.888 749.312 60.432C749.035 60.9653 748.629 61.3813 748.096 61.68C747.563 61.9787 746.933 62.128 746.208 62.128ZM755.108 62.128C753.849 62.128 752.889 61.616 752.228 60.592C751.577 59.5573 751.252 58.16 751.252 56.4C751.252 54.64 751.577 53.248 752.228 52.224C752.889 51.1893 753.849 50.672 755.108 50.672C756.366 50.672 757.321 51.1893 757.972 52.224C758.633 53.248 758.964 54.64 758.964 56.4C758.964 58.16 758.633 59.5573 757.972 60.592C757.321 61.616 756.366 62.128 755.108 62.128ZM755.108 61.232C755.694 61.232 756.201 61.0293 756.628 60.624C757.054 60.2187 757.38 59.6533 757.604 58.928C757.828 58.192 757.94 57.3493 757.94 56.4C757.94 55.4507 757.828 54.6133 757.604 53.888C757.38 53.152 757.054 52.5813 756.628 52.176C756.201 51.7707 755.694 51.568 755.108 51.568C754.521 51.568 754.014 51.7707 753.588 52.176C753.161 52.5813 752.836 53.152 752.612 53.888C752.388 54.6133 752.276 55.4507 752.276 56.4C752.276 57.3493 752.388 58.192 752.612 58.928C752.836 59.6533 753.161 60.2187 753.588 60.624C754.014 61.0293 754.521 61.232 755.108 61.232ZM767.215 62.128C766.276 62.128 765.54 61.856 765.007 61.312C764.484 60.7573 764.164 60.0747 764.047 59.264L765.135 59.024C765.231 59.6853 765.45 60.2027 765.791 60.576C766.132 60.9493 766.607 61.136 767.215 61.136C767.834 61.136 768.335 60.944 768.719 60.56C769.114 60.176 769.311 59.6 769.311 58.832V50.8H770.367V58.72C770.367 59.4347 770.223 60.0533 769.935 60.576C769.647 61.088 769.263 61.4773 768.783 61.744C768.303 62 767.78 62.128 767.215 62.128ZM775.182 62.128C774.414 62.128 773.806 61.8987 773.358 61.44C772.92 60.9707 772.702 60.3147 772.702 59.472V53.936H773.694V59.344C773.694 59.9413 773.827 60.4 774.094 60.72C774.371 61.04 774.787 61.2 775.342 61.2C775.832 61.2 776.275 61.0507 776.67 60.752C777.064 60.4427 777.374 60.0053 777.598 59.44C777.832 58.8747 777.95 58.2187 777.95 57.472V53.936H778.942V62H777.95V60.32C777.672 60.864 777.283 61.3013 776.782 61.632C776.291 61.9627 775.758 62.128 775.182 62.128ZM781.276 53.936H782.268V55.616C782.545 55.072 782.929 54.6347 783.42 54.304C783.921 53.9733 784.46 53.808 785.036 53.808C785.804 53.808 786.407 54.0427 786.844 54.512C787.292 54.9707 787.516 55.6213 787.516 56.464V62H786.524V56.592C786.524 55.9947 786.385 55.536 786.108 55.216C785.841 54.896 785.431 54.736 784.876 54.736C784.385 54.736 783.943 54.8907 783.548 55.2C783.153 55.4987 782.839 55.9307 782.604 56.496C782.38 57.0613 782.268 57.7173 782.268 58.464V62H781.276V53.936ZM792.955 62.128C792.251 62.128 791.627 61.952 791.083 61.6C790.539 61.2373 790.117 60.7413 789.819 60.112C789.52 59.4827 789.371 58.768 789.371 57.968C789.371 57.168 789.52 56.4533 789.819 55.824C790.117 55.1947 790.539 54.704 791.083 54.352C791.627 53.9893 792.251 53.808 792.955 53.808C793.637 53.808 794.245 53.9627 794.779 54.272C795.323 54.5813 795.744 55.0187 796.043 55.584C796.341 56.1387 796.491 56.784 796.491 57.52V57.968H790.411C790.411 58.928 790.635 59.7067 791.083 60.304C791.541 60.9013 792.165 61.2 792.955 61.2C793.563 61.2 794.053 61.0667 794.427 60.8C794.8 60.5333 795.136 60.0907 795.435 59.472L796.315 59.904C795.909 60.704 795.44 61.2747 794.907 61.616C794.373 61.9573 793.723 62.128 792.955 62.128ZM795.467 57.04C795.371 56.3253 795.104 55.7653 794.667 55.36C794.24 54.944 793.669 54.736 792.955 54.736C792.304 54.736 791.76 54.9493 791.323 55.376C790.896 55.8027 790.613 56.3573 790.475 57.04H795.467ZM801.482 61.632L805.562 56.352C806.074 55.7013 806.41 55.2 806.57 54.848C806.73 54.496 806.81 54.0853 806.81 53.616C806.81 52.9867 806.634 52.4907 806.282 52.128C805.93 51.7547 805.445 51.568 804.826 51.568C804.25 51.568 803.765 51.7813 803.37 52.208C802.986 52.624 802.746 53.1627 802.65 53.824L801.722 53.648C801.807 52.7733 802.133 52.0587 802.698 51.504C803.263 50.9493 803.973 50.672 804.826 50.672C805.711 50.672 806.431 50.9333 806.986 51.456C807.551 51.9787 807.834 52.7093 807.834 53.648C807.834 54.1493 807.717 54.6347 807.482 55.104C807.258 55.5733 806.922 56.096 806.474 56.672L803.05 61.104H808.106V62H801.482V61.632ZM813.453 62.128C812.194 62.128 811.234 61.616 810.573 60.592C809.922 59.5573 809.597 58.16 809.597 56.4C809.597 54.64 809.922 53.248 810.573 52.224C811.234 51.1893 812.194 50.672 813.453 50.672C814.711 50.672 815.666 51.1893 816.317 52.224C816.978 53.248 817.309 54.64 817.309 56.4C817.309 58.16 816.978 59.5573 816.317 60.592C815.666 61.616 814.711 62.128 813.453 62.128ZM813.453 61.232C814.039 61.232 814.546 61.0293 814.973 60.624C815.399 60.2187 815.725 59.6533 815.949 58.928C816.173 58.192 816.285 57.3493 816.285 56.4C816.285 55.4507 816.173 54.6133 815.949 53.888C815.725 53.152 815.399 52.5813 814.973 52.176C814.546 51.7707 814.039 51.568 813.453 51.568C812.866 51.568 812.359 51.7707 811.933 52.176C811.506 52.5813 811.181 53.152 810.957 53.888C810.733 54.6133 810.621 55.4507 810.621 56.4C810.621 57.3493 810.733 58.192 810.957 58.928C811.181 59.6533 811.506 60.2187 811.933 60.624C812.359 61.0293 812.866 61.232 813.453 61.232ZM818.553 61.632L822.633 56.352C823.145 55.7013 823.481 55.2 823.641 54.848C823.801 54.496 823.881 54.0853 823.881 53.616C823.881 52.9867 823.705 52.4907 823.353 52.128C823.001 51.7547 822.515 51.568 821.897 51.568C821.321 51.568 820.835 51.7813 820.441 52.208C820.057 52.624 819.817 53.1627 819.721 53.824L818.793 53.648C818.878 52.7733 819.203 52.0587 819.769 51.504C820.334 50.9493 821.043 50.672 821.897 50.672C822.782 50.672 823.502 50.9333 824.057 51.456C824.622 51.9787 824.905 52.7093 824.905 53.648C824.905 54.1493 824.787 54.6347 824.553 55.104C824.329 55.5733 823.993 56.096 823.545 56.672L820.121 61.104H825.177V62H818.553V61.632ZM830.523 62.128C829.265 62.128 828.305 61.616 827.643 60.592C826.993 59.5573 826.667 58.16 826.667 56.4C826.667 54.64 826.993 53.248 827.643 52.224C828.305 51.1893 829.265 50.672 830.523 50.672C831.782 50.672 832.737 51.1893 833.387 52.224C834.049 53.248 834.379 54.64 834.379 56.4C834.379 58.16 834.049 59.5573 833.387 60.592C832.737 61.616 831.782 62.128 830.523 62.128ZM830.523 61.232C831.11 61.232 831.617 61.0293 832.043 60.624C832.47 60.2187 832.795 59.6533 833.019 58.928C833.243 58.192 833.355 57.3493 833.355 56.4C833.355 55.4507 833.243 54.6133 833.019 53.888C832.795 53.152 832.47 52.5813 832.043 52.176C831.617 51.7707 831.11 51.568 830.523 51.568C829.937 51.568 829.43 51.7707 829.003 52.176C828.577 52.5813 828.251 53.152 828.027 53.888C827.803 54.6133 827.691 55.4507 827.691 56.4C827.691 57.3493 827.803 58.192 828.027 58.928C828.251 59.6533 828.577 60.2187 829.003 60.624C829.43 61.0293 829.937 61.232 830.523 61.232Z" fill="#535353"/>
<path d="M746.032 27.8H747.696L751.584 39H749.792L748.864 36.216H744.864L743.936 39H742.144L746.032 27.8ZM746.864 30.024L745.392 34.552H748.336L746.864 30.024ZM760.296 34.968C760.296 36.248 759.987 37.2613 759.368 38.008C758.749 38.7547 757.848 39.128 756.664 39.128C756.195 39.128 755.768 39.032 755.384 38.84C755 38.6373 754.707 38.392 754.504 38.104V42.264H752.84V30.936H754.504V31.864C754.653 31.5973 754.931 31.3573 755.336 31.144C755.752 30.92 756.205 30.808 756.696 30.808C757.869 30.808 758.76 31.176 759.368 31.912C759.987 32.6373 760.296 33.656 760.296 34.968ZM757.96 36.936C758.344 36.4453 758.536 35.7893 758.536 34.968C758.536 34.1467 758.344 33.496 757.96 33.016C757.576 32.5253 757.08 32.28 756.472 32.28C755.864 32.28 755.368 32.5253 754.984 33.016C754.6 33.496 754.408 34.1467 754.408 34.968C754.408 35.7893 754.6 36.4453 754.984 36.936C755.368 37.416 755.864 37.656 756.472 37.656C757.08 37.656 757.576 37.416 757.96 36.936ZM769.588 34.968C769.588 36.248 769.279 37.2613 768.66 38.008C768.041 38.7547 767.14 39.128 765.956 39.128C765.487 39.128 765.06 39.032 764.676 38.84C764.292 38.6373 763.999 38.392 763.796 38.104V42.264H762.132V30.936H763.796V31.864C763.945 31.5973 764.223 31.3573 764.628 31.144C765.044 30.92 765.497 30.808 765.988 30.808C767.161 30.808 768.052 31.176 768.66 31.912C769.279 32.6373 769.588 33.656 769.588 34.968ZM767.252 36.936C767.636 36.4453 767.828 35.7893 767.828 34.968C767.828 34.1467 767.636 33.496 767.252 33.016C766.868 32.5253 766.372 32.28 765.764 32.28C765.156 32.28 764.66 32.5253 764.276 33.016C763.892 33.496 763.7 34.1467 763.7 34.968C763.7 35.7893 763.892 36.4453 764.276 36.936C764.66 37.416 765.156 37.656 765.764 37.656C766.372 37.656 766.868 37.416 767.252 36.936ZM771.251 27.672H772.915V39H771.251V27.672ZM774.87 29.48C774.657 29.256 774.55 28.984 774.55 28.664C774.55 28.344 774.662 28.072 774.886 27.848C775.11 27.6133 775.382 27.496 775.702 27.496C776.022 27.496 776.294 27.6133 776.518 27.848C776.742 28.072 776.854 28.344 776.854 28.664C776.854 28.984 776.742 29.256 776.518 29.48C776.305 29.6933 776.033 29.8 775.702 29.8C775.372 29.8 775.094 29.6933 774.87 29.48ZM774.87 30.936H776.534V39H774.87V30.936ZM783.974 36.264L785.462 36.904C784.811 38.3867 783.648 39.128 781.974 39.128C780.758 39.128 779.819 38.7333 779.158 37.944C778.507 37.144 778.182 36.152 778.182 34.968C778.182 33.784 778.507 32.7973 779.158 32.008C779.819 31.208 780.758 30.808 781.974 30.808C783.648 30.808 784.811 31.5493 785.462 33.032L783.974 33.672C783.558 32.744 782.891 32.28 781.974 32.28C781.291 32.28 780.779 32.5253 780.438 33.016C780.107 33.5067 779.942 34.1573 779.942 34.968C779.942 35.7787 780.107 36.4293 780.438 36.92C780.779 37.4107 781.291 37.656 781.974 37.656C782.891 37.656 783.558 37.192 783.974 36.264ZM786.597 36.68C786.597 35.8587 786.917 35.2133 787.557 34.744C788.197 34.2747 789.04 34.04 790.085 34.04H791.477V33.688C791.477 33.208 791.328 32.856 791.029 32.632C790.741 32.3973 790.368 32.28 789.909 32.28C789.173 32.28 788.672 32.6373 788.405 33.352L786.885 33.032C787.056 32.3493 787.413 31.8107 787.957 31.416C788.501 31.0107 789.157 30.808 789.925 30.808C792.069 30.808 793.141 31.8693 793.141 33.992V39H791.733L791.573 37.944C791.008 38.7333 790.176 39.128 789.077 39.128C788.362 39.128 787.77 38.92 787.301 38.504C786.832 38.088 786.597 37.48 786.597 36.68ZM788.357 36.68C788.357 36.968 788.442 37.2027 788.613 37.384C788.784 37.5653 789.034 37.656 789.365 37.656C789.93 37.656 790.421 37.48 790.837 37.128C791.264 36.7653 791.477 36.2587 791.477 35.608V35.432H790.021C789.509 35.432 789.104 35.544 788.805 35.768C788.506 35.992 788.357 36.296 788.357 36.68ZM794.255 32.408V30.936H795.599V28.712L797.263 27.672V30.936H799.359V32.408H797.263V36.344C797.263 37.2187 797.621 37.656 798.335 37.656C798.602 37.656 798.858 37.5813 799.103 37.432L799.535 38.84C799.141 39.032 798.709 39.128 798.239 39.128C797.439 39.128 796.799 38.888 796.319 38.408C795.839 37.9173 795.599 37.1973 795.599 36.248V32.408H794.255ZM801.085 29.48C800.872 29.256 800.765 28.984 800.765 28.664C800.765 28.344 800.877 28.072 801.101 27.848C801.325 27.6133 801.597 27.496 801.917 27.496C802.237 27.496 802.509 27.6133 802.733 27.848C802.957 28.072 803.069 28.344 803.069 28.664C803.069 28.984 802.957 29.256 802.733 29.48C802.52 29.6933 802.248 29.8 801.917 29.8C801.587 29.8 801.309 29.6933 801.085 29.48ZM801.085 30.936H802.749V39H801.085V30.936ZM805.469 37.928C804.754 37.128 804.397 36.1413 804.397 34.968C804.397 33.7947 804.754 32.808 805.469 32.008C806.194 31.208 807.159 30.808 808.365 30.808C809.57 30.808 810.53 31.208 811.245 32.008C811.97 32.808 812.333 33.7947 812.333 34.968C812.333 36.1413 811.97 37.128 811.245 37.928C810.53 38.728 809.57 39.128 808.365 39.128C807.159 39.128 806.194 38.728 805.469 37.928ZM806.733 33.08C806.349 33.6027 806.157 34.232 806.157 34.968C806.157 35.704 806.349 36.3387 806.733 36.872C807.127 37.3947 807.671 37.656 808.365 37.656C809.058 37.656 809.597 37.3947 809.981 36.872C810.375 36.3387 810.573 35.704 810.573 34.968C810.573 34.232 810.375 33.6027 809.981 33.08C809.597 32.5467 809.058 32.28 808.365 32.28C807.671 32.28 807.127 32.5467 806.733 33.08ZM814.031 30.936H815.695V32.312C815.983 31.832 816.356 31.464 816.815 31.208C817.273 30.9413 817.769 30.808 818.303 30.808C819.017 30.808 819.588 31.0213 820.015 31.448C820.452 31.864 820.671 32.456 820.671 33.224V39H819.007V33.752C819.007 32.7707 818.591 32.28 817.759 32.28C817.204 32.28 816.719 32.5947 816.303 33.224C815.897 33.8427 815.695 34.68 815.695 35.736V39H814.031V30.936ZM826.554 34.968C826.554 33.688 826.864 32.6747 827.482 31.928C828.101 31.1813 829.002 30.808 830.186 30.808C830.581 30.808 830.992 30.9147 831.418 31.128C831.845 31.3307 832.154 31.5653 832.346 31.832V27.672H834.01V39H832.346V38.072C832.197 38.3387 831.914 38.584 831.498 38.808C831.093 39.0213 830.645 39.128 830.154 39.128C828.981 39.128 828.085 38.7653 827.466 38.04C826.858 37.304 826.554 36.28 826.554 34.968ZM828.89 33.016C828.506 33.496 828.314 34.1467 828.314 34.968C828.314 35.7893 828.506 36.4453 828.89 36.936C829.274 37.416 829.77 37.656 830.378 37.656C830.986 37.656 831.482 37.416 831.866 36.936C832.25 36.4453 832.442 35.7893 832.442 34.968C832.442 34.1467 832.25 33.496 831.866 33.016C831.482 32.5253 830.986 32.28 830.378 32.28C829.77 32.28 829.274 32.5253 828.89 33.016ZM839.466 32.28C838.932 32.28 838.495 32.4453 838.154 32.776C837.812 33.096 837.594 33.5173 837.498 34.04H841.418C841.343 33.5387 841.14 33.1227 840.81 32.792C840.479 32.4507 840.031 32.28 839.466 32.28ZM843.178 34.712V35.432H837.466C837.466 36.0613 837.642 36.5893 837.994 37.016C838.346 37.4427 838.836 37.656 839.466 37.656C839.914 37.656 840.324 37.5387 840.698 37.304C841.082 37.0587 841.375 36.7227 841.578 36.296L843.002 36.856C842.596 37.6453 842.127 38.2213 841.594 38.584C841.06 38.9467 840.351 39.128 839.466 39.128C838.826 39.128 838.255 39.0053 837.754 38.76C837.263 38.504 836.874 38.1733 836.586 37.768C836.298 37.352 836.079 36.9093 835.93 36.44C835.78 35.96 835.706 35.4693 835.706 34.968C835.706 34.4667 835.78 33.9813 835.93 33.512C836.079 33.032 836.298 32.5893 836.586 32.184C836.874 31.768 837.263 31.4373 837.754 31.192C838.255 30.936 838.826 30.808 839.466 30.808C840.084 30.808 840.639 30.9253 841.13 31.16C841.62 31.3947 842.01 31.704 842.298 32.088C842.586 32.472 842.804 32.888 842.954 33.336C843.103 33.784 843.178 34.2427 843.178 34.712ZM844.418 36.68C844.418 35.8587 844.738 35.2133 845.378 34.744C846.018 34.2747 846.86 34.04 847.906 34.04H849.298V33.688C849.298 33.208 849.148 32.856 848.85 32.632C848.562 32.3973 848.188 32.28 847.73 32.28C846.994 32.28 846.492 32.6373 846.226 33.352L844.706 33.032C844.876 32.3493 845.234 31.8107 845.778 31.416C846.322 31.0107 846.978 30.808 847.746 30.808C849.89 30.808 850.962 31.8693 850.962 33.992V39H849.554L849.394 37.944C848.828 38.7333 847.996 39.128 846.898 39.128C846.183 39.128 845.591 38.92 845.122 38.504C844.652 38.088 844.418 37.48 844.418 36.68ZM846.178 36.68C846.178 36.968 846.263 37.2027 846.434 37.384C846.604 37.5653 846.855 37.656 847.186 37.656C847.751 37.656 848.242 37.48 848.658 37.128C849.084 36.7653 849.298 36.2587 849.298 35.608V35.432H847.842C847.33 35.432 846.924 35.544 846.626 35.768C846.327 35.992 846.178 36.296 846.178 36.68ZM852.727 34.968C852.727 33.688 853.037 32.6747 853.655 31.928C854.274 31.1813 855.175 30.808 856.359 30.808C856.754 30.808 857.165 30.9147 857.591 31.128C858.018 31.3307 858.327 31.5653 858.519 31.832V27.672H860.183V39H858.519V38.072C858.37 38.3387 858.087 38.584 857.671 38.808C857.266 39.0213 856.818 39.128 856.327 39.128C855.154 39.128 854.258 38.7653 853.639 38.04C853.031 37.304 852.727 36.28 852.727 34.968ZM855.063 33.016C854.679 33.496 854.487 34.1467 854.487 34.968C854.487 35.7893 854.679 36.4453 855.063 36.936C855.447 37.416 855.943 37.656 856.551 37.656C857.159 37.656 857.655 37.416 858.039 36.936C858.423 36.4453 858.615 35.7893 858.615 34.968C858.615 34.1467 858.423 33.496 858.039 33.016C857.655 32.5253 857.159 32.28 856.551 32.28C855.943 32.28 855.447 32.5253 855.063 33.016ZM862.157 27.672H863.821V39H862.157V27.672ZM865.776 29.48C865.563 29.256 865.456 28.984 865.456 28.664C865.456 28.344 865.568 28.072 865.792 27.848C866.016 27.6133 866.288 27.496 866.608 27.496C866.928 27.496 867.2 27.6133 867.424 27.848C867.648 28.072 867.76 28.344 867.76 28.664C867.76 28.984 867.648 29.256 867.424 29.48C867.211 29.6933 866.939 29.8 866.608 29.8C866.278 29.8 866 29.6933 865.776 29.48ZM865.776 30.936H867.44V39H865.776V30.936ZM869.445 30.936H871.109V32.312C871.397 31.832 871.771 31.464 872.229 31.208C872.688 30.9413 873.184 30.808 873.717 30.808C874.432 30.808 875.003 31.0213 875.429 31.448C875.867 31.864 876.085 32.456 876.085 33.224V39H874.421V33.752C874.421 32.7707 874.005 32.28 873.173 32.28C872.619 32.28 872.133 32.5947 871.717 33.224C871.312 33.8427 871.109 34.68 871.109 35.736V39H869.445V30.936ZM881.39 32.28C880.856 32.28 880.419 32.4453 880.078 32.776C879.736 33.096 879.518 33.5173 879.422 34.04H883.342C883.267 33.5387 883.064 33.1227 882.734 32.792C882.403 32.4507 881.955 32.28 881.39 32.28ZM885.102 34.712V35.432H879.39C879.39 36.0613 879.566 36.5893 879.918 37.016C880.27 37.4427 880.76 37.656 881.39 37.656C881.838 37.656 882.248 37.5387 882.622 37.304C883.006 37.0587 883.299 36.7227 883.502 36.296L884.926 36.856C884.52 37.6453 884.051 38.2213 883.518 38.584C882.984 38.9467 882.275 39.128 881.39 39.128C880.75 39.128 880.179 39.0053 879.678 38.76C879.187 38.504 878.798 38.1733 878.51 37.768C878.222 37.352 878.003 36.9093 877.854 36.44C877.704 35.96 877.63 35.4693 877.63 34.968C877.63 34.4667 877.704 33.9813 877.854 33.512C878.003 33.032 878.222 32.5893 878.51 32.184C878.798 31.768 879.187 31.4373 879.678 31.192C880.179 30.936 880.75 30.808 881.39 30.808C882.008 30.808 882.563 30.9253 883.054 31.16C883.544 31.3947 883.934 31.704 884.222 32.088C884.51 32.472 884.728 32.888 884.878 33.336C885.027 33.784 885.102 34.2427 885.102 34.712Z" fill="#535353"/>
</g>
<g clip-path="url(#clip4)">
<path d="M955.736 55.832C955.432 55.832 954.92 55.928 954.696 56.104L957.192 51.672H956.152L952.84 57.416C952.456 58.104 952.248 58.84 952.248 59.48C952.248 61.528 953.656 63.128 955.736 63.128C957.816 63.128 959.224 61.528 959.224 59.48C959.224 57.432 957.816 55.832 955.736 55.832ZM955.736 56.728C957.176 56.728 958.2 57.784 958.2 59.48C958.2 61.08 957.176 62.232 955.736 62.232C954.296 62.232 953.272 61.08 953.272 59.48C953.272 57.784 954.296 56.728 955.736 56.728ZM965.515 51.8V63H968.459C971.339 63 973.547 60.904 973.547 57.4C973.547 53.896 971.339 51.8 968.459 51.8H965.515ZM968.475 52.792C970.539 52.792 972.443 54.184 972.443 57.4C972.443 60.616 970.539 62.008 968.475 62.008H966.571V52.792H968.475ZM976.269 60.68C976.269 59.624 977.133 58.968 978.973 58.968H980.285V59.272C980.285 61.448 978.877 62.2 977.837 62.2C976.877 62.2 976.269 61.672 976.269 60.68ZM981.277 57.656C981.277 55.832 980.013 54.808 978.429 54.808C976.989 54.808 975.773 55.656 975.549 57.016L976.509 57.24C976.749 56.424 977.325 55.736 978.429 55.736C979.501 55.736 980.285 56.28 980.285 57.688V58.04H978.941C976.685 58.04 975.229 58.888 975.229 60.68C975.229 62.456 976.397 63.128 977.741 63.128C979.021 63.128 979.837 62.536 980.285 61.752L980.525 63H981.277V57.656ZM988.125 54.936L985.885 61.464L983.485 54.936H982.445L985.341 62.952L984.173 66.264H985.165L989.165 54.936H988.125ZM1002.43 62.216C1002.43 62.696 1002.76 63.032 1003.24 63.032C1003.71 63.032 1004.06 62.696 1004.06 62.216C1004.06 61.752 1003.71 61.4 1003.24 61.4C1002.76 61.4 1002.43 61.752 1002.43 62.216ZM1002.43 56.36C1002.43 56.84 1002.76 57.176 1003.24 57.176C1003.71 57.176 1004.06 56.84 1004.06 56.36C1004.06 55.896 1003.71 55.544 1003.24 55.544C1002.76 55.544 1002.43 55.896 1002.43 56.36ZM1018.28 63H1024.9V62.104H1019.85L1023.27 57.672C1024.06 56.664 1024.63 55.736 1024.63 54.648C1024.63 52.712 1023.32 51.672 1021.62 51.672C1019.91 51.672 1018.68 52.904 1018.52 54.648L1019.45 54.824C1019.64 53.528 1020.46 52.568 1021.62 52.568C1022.86 52.568 1023.61 53.352 1023.61 54.616C1023.61 55.56 1023.37 56.056 1022.36 57.352L1018.28 62.632V63ZM1027.23 63H1033.85V62.104H1028.8L1032.22 57.672C1033.01 56.664 1033.58 55.736 1033.58 54.648C1033.58 52.712 1032.27 51.672 1030.57 51.672C1028.86 51.672 1027.63 52.904 1027.47 54.648L1028.4 54.824C1028.59 53.528 1029.41 52.568 1030.57 52.568C1031.81 52.568 1032.56 53.352 1032.56 54.616C1032.56 55.56 1032.32 56.056 1031.31 57.352L1027.23 62.632V63ZM1047.22 51.8V56.552H1041.52V51.8H1040.47V63H1041.52V57.544H1047.22V63H1048.27V51.8H1047.22ZM1055.46 55.08C1055.06 54.92 1054.71 54.808 1054.24 54.808C1053.15 54.808 1052.35 55.384 1051.87 56.376V54.936H1050.88V63H1051.87V59.88C1051.87 57.128 1052.87 55.736 1054.1 55.736C1054.51 55.736 1054.88 55.832 1055.23 56.024L1055.46 55.08ZM1058.94 54.808C1057.66 54.808 1056.69 55.672 1056.69 56.968C1056.69 59.496 1060.5 58.92 1060.5 60.76C1060.5 61.64 1059.98 62.2 1059.04 62.2C1057.86 62.2 1057.36 61.432 1057.01 60.456L1056.13 60.92C1056.45 61.976 1057.33 63.128 1059.04 63.128C1060.58 63.128 1061.54 62.152 1061.54 60.6C1061.54 58.264 1057.71 58.584 1057.71 56.952C1057.71 56.216 1058.21 55.736 1058.9 55.736C1059.54 55.736 1059.98 56.008 1060.48 56.664L1061.18 56.056C1060.64 55.288 1059.97 54.808 1058.94 54.808ZM1075.49 62.216C1075.49 62.696 1075.83 63.032 1076.31 63.032C1076.77 63.032 1077.12 62.696 1077.12 62.216C1077.12 61.752 1076.77 61.4 1076.31 61.4C1075.83 61.4 1075.49 61.752 1075.49 62.216ZM1075.49 56.36C1075.49 56.84 1075.83 57.176 1076.31 57.176C1076.77 57.176 1077.12 56.84 1077.12 56.36C1077.12 55.896 1076.77 55.544 1076.31 55.544C1075.83 55.544 1075.49 55.896 1075.49 56.36ZM1091.29 60.056C1091.55 62.136 1092.86 63.128 1094.57 63.128C1096.73 63.128 1098.03 61.56 1098.03 59.352C1098.03 57.016 1096.73 55.576 1094.67 55.576C1093.82 55.576 1093.1 56.008 1092.64 56.504L1093.04 52.696H1097.37V51.8H1092.14L1091.56 57.816L1092.27 57.976C1092.73 57.176 1093.53 56.472 1094.57 56.472C1096.09 56.472 1097 57.432 1097 59.352C1097 61.096 1096.2 62.232 1094.57 62.232C1093.05 62.232 1092.44 61.192 1092.27 59.88L1091.29 60.056ZM1103.54 55.832C1103.24 55.832 1102.73 55.928 1102.5 56.104L1105 51.672H1103.96L1100.65 57.416C1100.26 58.104 1100.06 58.84 1100.06 59.48C1100.06 61.528 1101.46 63.128 1103.54 63.128C1105.62 63.128 1107.03 61.528 1107.03 59.48C1107.03 57.432 1105.62 55.832 1103.54 55.832ZM1103.54 56.728C1104.98 56.728 1106.01 57.784 1106.01 59.48C1106.01 61.08 1104.98 62.232 1103.54 62.232C1102.1 62.232 1101.08 61.08 1101.08 59.48C1101.08 57.784 1102.1 56.728 1103.54 56.728ZM1113.32 51.8V63H1114.38V53.848L1117.63 61.976H1118.3L1121.55 53.848V63H1122.6V51.8H1121.29L1117.96 60.232L1114.64 51.8H1113.32ZM1124.91 52.616C1124.91 53.08 1125.26 53.432 1125.73 53.432C1126.19 53.432 1126.54 53.08 1126.54 52.616C1126.54 52.152 1126.19 51.8 1125.73 51.8C1125.26 51.8 1124.91 52.152 1124.91 52.616ZM1125.23 54.936V63H1126.22V54.936H1125.23ZM1134.42 57.464C1134.42 55.768 1133.46 54.808 1131.94 54.808C1130.77 54.808 1129.71 55.56 1129.17 56.616V54.936H1128.18V63H1129.17V59.464C1129.17 57.176 1130.3 55.736 1131.78 55.736C1132.9 55.736 1133.42 56.424 1133.42 57.592V63H1134.42V57.464Z" fill="#535353"/>
<path d="M955.032 27.8H956.696L960.584 39H958.792L957.864 36.216H953.864L952.936 39H951.144L955.032 27.8ZM955.864 30.024L954.392 34.552H957.336L955.864 30.024ZM969.296 34.968C969.296 36.248 968.987 37.2613 968.368 38.008C967.749 38.7547 966.848 39.128 965.664 39.128C965.195 39.128 964.768 39.032 964.384 38.84C964 38.6373 963.707 38.392 963.504 38.104V42.264H961.84V30.936H963.504V31.864C963.653 31.5973 963.931 31.3573 964.336 31.144C964.752 30.92 965.205 30.808 965.696 30.808C966.869 30.808 967.76 31.176 968.368 31.912C968.987 32.6373 969.296 33.656 969.296 34.968ZM966.96 36.936C967.344 36.4453 967.536 35.7893 967.536 34.968C967.536 34.1467 967.344 33.496 966.96 33.016C966.576 32.5253 966.08 32.28 965.472 32.28C964.864 32.28 964.368 32.5253 963.984 33.016C963.6 33.496 963.408 34.1467 963.408 34.968C963.408 35.7893 963.6 36.4453 963.984 36.936C964.368 37.416 964.864 37.656 965.472 37.656C966.08 37.656 966.576 37.416 966.96 36.936ZM978.588 34.968C978.588 36.248 978.279 37.2613 977.66 38.008C977.041 38.7547 976.14 39.128 974.956 39.128C974.487 39.128 974.06 39.032 973.676 38.84C973.292 38.6373 972.999 38.392 972.796 38.104V42.264H971.132V30.936H972.796V31.864C972.945 31.5973 973.223 31.3573 973.628 31.144C974.044 30.92 974.497 30.808 974.988 30.808C976.161 30.808 977.052 31.176 977.66 31.912C978.279 32.6373 978.588 33.656 978.588 34.968ZM976.252 36.936C976.636 36.4453 976.828 35.7893 976.828 34.968C976.828 34.1467 976.636 33.496 976.252 33.016C975.868 32.5253 975.372 32.28 974.764 32.28C974.156 32.28 973.66 32.5253 973.276 33.016C972.892 33.496 972.7 34.1467 972.7 34.968C972.7 35.7893 972.892 36.4453 973.276 36.936C973.66 37.416 974.156 37.656 974.764 37.656C975.372 37.656 975.868 37.416 976.252 36.936ZM980.251 27.672H981.915V39H980.251V27.672ZM983.87 29.48C983.657 29.256 983.55 28.984 983.55 28.664C983.55 28.344 983.662 28.072 983.886 27.848C984.11 27.6133 984.382 27.496 984.702 27.496C985.022 27.496 985.294 27.6133 985.518 27.848C985.742 28.072 985.854 28.344 985.854 28.664C985.854 28.984 985.742 29.256 985.518 29.48C985.305 29.6933 985.033 29.8 984.702 29.8C984.372 29.8 984.094 29.6933 983.87 29.48ZM983.87 30.936H985.534V39H983.87V30.936ZM992.974 36.264L994.462 36.904C993.811 38.3867 992.648 39.128 990.974 39.128C989.758 39.128 988.819 38.7333 988.158 37.944C987.507 37.144 987.182 36.152 987.182 34.968C987.182 33.784 987.507 32.7973 988.158 32.008C988.819 31.208 989.758 30.808 990.974 30.808C992.648 30.808 993.811 31.5493 994.462 33.032L992.974 33.672C992.558 32.744 991.891 32.28 990.974 32.28C990.291 32.28 989.779 32.5253 989.438 33.016C989.107 33.5067 988.942 34.1573 988.942 34.968C988.942 35.7787 989.107 36.4293 989.438 36.92C989.779 37.4107 990.291 37.656 990.974 37.656C991.891 37.656 992.558 37.192 992.974 36.264ZM995.597 36.68C995.597 35.8587 995.917 35.2133 996.557 34.744C997.197 34.2747 998.04 34.04 999.085 34.04H1000.48V33.688C1000.48 33.208 1000.33 32.856 1000.03 32.632C999.741 32.3973 999.368 32.28 998.909 32.28C998.173 32.28 997.672 32.6373 997.405 33.352L995.885 33.032C996.056 32.3493 996.413 31.8107 996.957 31.416C997.501 31.0107 998.157 30.808 998.925 30.808C1001.07 30.808 1002.14 31.8693 1002.14 33.992V39H1000.73L1000.57 37.944C1000.01 38.7333 999.176 39.128 998.077 39.128C997.362 39.128 996.77 38.92 996.301 38.504C995.832 38.088 995.597 37.48 995.597 36.68ZM997.357 36.68C997.357 36.968 997.442 37.2027 997.613 37.384C997.784 37.5653 998.034 37.656 998.365 37.656C998.93 37.656 999.421 37.48 999.837 37.128C1000.26 36.7653 1000.48 36.2587 1000.48 35.608V35.432H999.021C998.509 35.432 998.104 35.544 997.805 35.768C997.506 35.992 997.357 36.296 997.357 36.68ZM1003.26 32.408V30.936H1004.6V28.712L1006.26 27.672V30.936H1008.36V32.408H1006.26V36.344C1006.26 37.2187 1006.62 37.656 1007.34 37.656C1007.6 37.656 1007.86 37.5813 1008.1 37.432L1008.54 38.84C1008.14 39.032 1007.71 39.128 1007.24 39.128C1006.44 39.128 1005.8 38.888 1005.32 38.408C1004.84 37.9173 1004.6 37.1973 1004.6 36.248V32.408H1003.26ZM1010.09 29.48C1009.87 29.256 1009.77 28.984 1009.77 28.664C1009.77 28.344 1009.88 28.072 1010.1 27.848C1010.33 27.6133 1010.6 27.496 1010.92 27.496C1011.24 27.496 1011.51 27.6133 1011.73 27.848C1011.96 28.072 1012.07 28.344 1012.07 28.664C1012.07 28.984 1011.96 29.256 1011.73 29.48C1011.52 29.6933 1011.25 29.8 1010.92 29.8C1010.59 29.8 1010.31 29.6933 1010.09 29.48ZM1010.09 30.936H1011.75V39H1010.09V30.936ZM1014.47 37.928C1013.75 37.128 1013.4 36.1413 1013.4 34.968C1013.4 33.7947 1013.75 32.808 1014.47 32.008C1015.19 31.208 1016.16 30.808 1017.36 30.808C1018.57 30.808 1019.53 31.208 1020.24 32.008C1020.97 32.808 1021.33 33.7947 1021.33 34.968C1021.33 36.1413 1020.97 37.128 1020.24 37.928C1019.53 38.728 1018.57 39.128 1017.36 39.128C1016.16 39.128 1015.19 38.728 1014.47 37.928ZM1015.73 33.08C1015.35 33.6027 1015.16 34.232 1015.16 34.968C1015.16 35.704 1015.35 36.3387 1015.73 36.872C1016.13 37.3947 1016.67 37.656 1017.36 37.656C1018.06 37.656 1018.6 37.3947 1018.98 36.872C1019.38 36.3387 1019.57 35.704 1019.57 34.968C1019.57 34.232 1019.38 33.6027 1018.98 33.08C1018.6 32.5467 1018.06 32.28 1017.36 32.28C1016.67 32.28 1016.13 32.5467 1015.73 33.08ZM1023.03 30.936H1024.69V32.312C1024.98 31.832 1025.36 31.464 1025.81 31.208C1026.27 30.9413 1026.77 30.808 1027.3 30.808C1028.02 30.808 1028.59 31.0213 1029.01 31.448C1029.45 31.864 1029.67 32.456 1029.67 33.224V39H1028.01V33.752C1028.01 32.7707 1027.59 32.28 1026.76 32.28C1026.2 32.28 1025.72 32.5947 1025.3 33.224C1024.9 33.8427 1024.69 34.68 1024.69 35.736V39H1023.03V30.936ZM1041.35 36.264L1042.83 36.904C1042.18 38.3867 1041.02 39.128 1039.35 39.128C1038.13 39.128 1037.19 38.7333 1036.53 37.944C1035.88 37.144 1035.55 36.152 1035.55 34.968C1035.55 33.784 1035.88 32.7973 1036.53 32.008C1037.19 31.208 1038.13 30.808 1039.35 30.808C1041.02 30.808 1042.18 31.5493 1042.83 33.032L1041.35 33.672C1040.93 32.744 1040.26 32.28 1039.35 32.28C1038.66 32.28 1038.15 32.5253 1037.81 33.016C1037.48 33.5067 1037.31 34.1573 1037.31 34.968C1037.31 35.7787 1037.48 36.4293 1037.81 36.92C1038.15 37.4107 1038.66 37.656 1039.35 37.656C1040.26 37.656 1040.93 37.192 1041.35 36.264ZM1044.64 27.672H1046.3V39H1044.64V27.672ZM1049.04 37.928C1048.32 37.128 1047.97 36.1413 1047.97 34.968C1047.97 33.7947 1048.32 32.808 1049.04 32.008C1049.76 31.208 1050.73 30.808 1051.93 30.808C1053.14 30.808 1054.1 31.208 1054.81 32.008C1055.54 32.808 1055.9 33.7947 1055.9 34.968C1055.9 36.1413 1055.54 37.128 1054.81 37.928C1054.1 38.728 1053.14 39.128 1051.93 39.128C1050.73 39.128 1049.76 38.728 1049.04 37.928ZM1050.3 33.08C1049.92 33.6027 1049.73 34.232 1049.73 34.968C1049.73 35.704 1049.92 36.3387 1050.3 36.872C1050.7 37.3947 1051.24 37.656 1051.93 37.656C1052.63 37.656 1053.17 37.3947 1053.55 36.872C1053.95 36.3387 1054.14 35.704 1054.14 34.968C1054.14 34.232 1053.95 33.6027 1053.55 33.08C1053.17 32.5467 1052.63 32.28 1051.93 32.28C1051.24 32.28 1050.7 32.5467 1050.3 33.08ZM1060 30.808C1060.49 30.808 1060.94 30.9253 1061.36 31.16C1061.79 31.384 1062.13 31.6933 1062.38 32.088L1061.33 33.016C1060.94 32.5253 1060.47 32.28 1059.92 32.28C1059.7 32.28 1059.5 32.3493 1059.34 32.488C1059.19 32.6267 1059.12 32.824 1059.12 33.08C1059.12 33.336 1059.23 33.544 1059.46 33.704C1059.69 33.864 1060.06 34.04 1060.56 34.232C1060.84 34.3387 1061.06 34.4293 1061.22 34.504C1061.39 34.568 1061.58 34.6747 1061.81 34.824C1062.04 34.9627 1062.22 35.1067 1062.34 35.256C1062.46 35.3947 1062.58 35.5813 1062.67 35.816C1062.77 36.04 1062.82 36.2907 1062.82 36.568C1062.82 37.2827 1062.56 37.8907 1062.05 38.392C1061.54 38.8827 1060.86 39.128 1060.02 39.128C1059.25 39.128 1058.6 38.9147 1058.06 38.488C1057.53 38.0613 1057.14 37.5547 1056.9 36.968L1058.3 36.2C1058.73 37.1707 1059.32 37.656 1060.08 37.656C1060.81 37.656 1061.17 37.304 1061.17 36.6C1061.17 36.4613 1061.14 36.344 1061.07 36.248C1061.01 36.1413 1060.9 36.0453 1060.75 35.96C1060.6 35.864 1060.46 35.7893 1060.34 35.736C1060.22 35.6827 1060.04 35.6133 1059.79 35.528C1059.56 35.432 1059.38 35.3573 1059.25 35.304C1058.1 34.824 1057.52 34.088 1057.52 33.096C1057.52 32.456 1057.75 31.9173 1058.22 31.48C1058.69 31.032 1059.29 30.808 1060 30.808ZM1067.81 32.28C1067.28 32.28 1066.84 32.4453 1066.5 32.776C1066.16 33.096 1065.94 33.5173 1065.84 34.04H1069.76C1069.69 33.5387 1069.49 33.1227 1069.15 32.792C1068.82 32.4507 1068.38 32.28 1067.81 32.28ZM1071.52 34.712V35.432H1065.81C1065.81 36.0613 1065.99 36.5893 1066.34 37.016C1066.69 37.4427 1067.18 37.656 1067.81 37.656C1068.26 37.656 1068.67 37.5387 1069.04 37.304C1069.43 37.0587 1069.72 36.7227 1069.92 36.296L1071.35 36.856C1070.94 37.6453 1070.47 38.2213 1069.94 38.584C1069.41 38.9467 1068.7 39.128 1067.81 39.128C1067.17 39.128 1066.6 39.0053 1066.1 38.76C1065.61 38.504 1065.22 38.1733 1064.93 37.768C1064.64 37.352 1064.42 36.9093 1064.27 36.44C1064.13 35.96 1064.05 35.4693 1064.05 34.968C1064.05 34.4667 1064.13 33.9813 1064.27 33.512C1064.42 33.032 1064.64 32.5893 1064.93 32.184C1065.22 31.768 1065.61 31.4373 1066.1 31.192C1066.6 30.936 1067.17 30.808 1067.81 30.808C1068.43 30.808 1068.98 30.9253 1069.47 31.16C1069.97 31.3947 1070.35 31.704 1070.64 32.088C1070.93 32.472 1071.15 32.888 1071.3 33.336C1071.45 33.784 1071.52 34.2427 1071.52 34.712ZM1075.8 30.808C1076.29 30.808 1076.75 30.9253 1077.16 31.16C1077.59 31.384 1077.93 31.6933 1078.19 32.088L1077.13 33.016C1076.75 32.5253 1076.28 32.28 1075.72 32.28C1075.5 32.28 1075.31 32.3493 1075.15 32.488C1075 32.6267 1074.92 32.824 1074.92 33.08C1074.92 33.336 1075.03 33.544 1075.26 33.704C1075.49 33.864 1075.86 34.04 1076.36 34.232C1076.64 34.3387 1076.86 34.4293 1077.02 34.504C1077.19 34.568 1077.39 34.6747 1077.61 34.824C1077.85 34.9627 1078.02 35.1067 1078.14 35.256C1078.27 35.3947 1078.38 35.5813 1078.47 35.816C1078.57 36.04 1078.62 36.2907 1078.62 36.568C1078.62 37.2827 1078.36 37.8907 1077.85 38.392C1077.34 38.8827 1076.66 39.128 1075.82 39.128C1075.05 39.128 1074.4 38.9147 1073.87 38.488C1073.33 38.0613 1072.94 37.5547 1072.7 36.968L1074.11 36.2C1074.53 37.1707 1075.13 37.656 1075.88 37.656C1076.61 37.656 1076.97 37.304 1076.97 36.6C1076.97 36.4613 1076.94 36.344 1076.87 36.248C1076.81 36.1413 1076.7 36.0453 1076.55 35.96C1076.41 35.864 1076.27 35.7893 1076.14 35.736C1076.02 35.6827 1075.84 35.6133 1075.59 35.528C1075.36 35.432 1075.18 35.3573 1075.05 35.304C1073.9 34.824 1073.32 34.088 1073.32 33.096C1073.32 32.456 1073.56 31.9173 1074.03 31.48C1074.5 31.032 1075.09 30.808 1075.8 30.808ZM1084.39 29.48C1084.18 29.256 1084.07 28.984 1084.07 28.664C1084.07 28.344 1084.18 28.072 1084.41 27.848C1084.63 27.6133 1084.9 27.496 1085.22 27.496C1085.54 27.496 1085.82 27.6133 1086.04 27.848C1086.26 28.072 1086.38 28.344 1086.38 28.664C1086.38 28.984 1086.26 29.256 1086.04 29.48C1085.83 29.6933 1085.55 29.8 1085.22 29.8C1084.89 29.8 1084.62 29.6933 1084.39 29.48ZM1084.39 30.936H1086.06V39H1084.39V30.936ZM1088.06 30.936H1089.72V32.312C1090.01 31.832 1090.39 31.464 1090.84 31.208C1091.3 30.9413 1091.8 30.808 1092.33 30.808C1093.05 30.808 1093.62 31.0213 1094.04 31.448C1094.48 31.864 1094.7 32.456 1094.7 33.224V39H1093.04V33.752C1093.04 32.7707 1092.62 32.28 1091.79 32.28C1091.23 32.28 1090.75 32.5947 1090.33 33.224C1089.93 33.8427 1089.72 34.68 1089.72 35.736V39H1088.06V30.936Z" fill="#535353"/>
</g>
<path d="M81.616 52.8V64H82.672V54.848L85.92 62.976H86.592L89.84 54.848V64H90.896V52.8H89.584L86.256 61.232L82.928 52.8H81.616ZM93.917 61.68C93.917 60.624 94.781 59.968 96.621 59.968H97.933V60.272C97.933 62.448 96.525 63.2 95.485 63.2C94.525 63.2 93.917 62.672 93.917 61.68ZM98.925 58.656C98.925 56.832 97.661 55.808 96.077 55.808C94.637 55.808 93.421 56.656 93.197 58.016L94.157 58.24C94.397 57.424 94.973 56.736 96.077 56.736C97.149 56.736 97.933 57.28 97.933 58.688V59.04H96.589C94.333 59.04 92.877 59.888 92.877 61.68C92.877 63.456 94.045 64.128 95.389 64.128C96.669 64.128 97.485 63.536 97.933 62.752L98.173 64H98.925V58.656ZM105.73 56.08C105.33 55.92 104.978 55.808 104.514 55.808C103.426 55.808 102.626 56.384 102.146 57.376V55.936H101.154V64H102.146V60.88C102.146 58.128 103.138 56.736 104.37 56.736C104.786 56.736 105.154 56.832 105.506 57.024L105.73 56.08ZM107.384 52.672V64H108.376V59.76L112.024 64H113.288L109.512 59.632L113 55.936H111.752L108.376 59.504V52.672H107.384ZM120.86 59.52C120.86 57.296 119.404 55.808 117.324 55.808C115.18 55.808 113.74 57.568 113.74 59.968C113.74 62.368 115.18 64.128 117.324 64.128C118.812 64.128 119.852 63.552 120.684 61.904L119.804 61.472C119.212 62.672 118.556 63.2 117.324 63.2C115.708 63.2 114.78 61.856 114.78 59.968H120.86V59.52ZM117.324 56.736C118.78 56.736 119.644 57.648 119.836 59.04H114.844C115.116 57.728 115.98 56.736 117.324 56.736ZM121.882 56.864H123.306V61.712C123.306 63.408 124.154 64.128 125.322 64.128C125.818 64.128 126.346 64.048 126.73 63.84L126.458 62.944C126.154 63.136 125.77 63.2 125.45 63.2C124.762 63.2 124.298 62.784 124.298 61.872V56.864H126.474V55.936H124.298V52.672L123.306 53.328V55.936H121.882V56.864ZM128.027 53.616C128.027 54.08 128.379 54.432 128.843 54.432C129.307 54.432 129.659 54.08 129.659 53.616C129.659 53.152 129.307 52.8 128.843 52.8C128.379 52.8 128.027 53.152 128.027 53.616ZM128.347 55.936V64H129.339V55.936H128.347ZM137.534 58.464C137.534 56.768 136.574 55.808 135.054 55.808C133.886 55.808 132.83 56.56 132.286 57.616V55.936H131.294V64H132.286V60.464C132.286 58.176 133.422 56.736 134.894 56.736C136.014 56.736 136.542 57.424 136.542 58.592V64H137.534V58.464ZM140.051 58.512C140.051 59.216 140.291 59.84 140.659 60.288C140.099 60.544 139.667 61.056 139.667 61.728C139.667 62.384 139.907 62.8 140.307 63.04C139.859 63.376 139.475 63.952 139.475 64.736C139.475 66.4 140.755 67.392 142.803 67.392C144.675 67.392 146.115 66.592 146.115 64.608C146.115 63.12 145.091 62.496 143.699 62.496H141.619C141.107 62.496 140.627 62.304 140.627 61.728C140.627 61.344 140.803 61.04 141.283 60.832C141.715 61.088 142.227 61.216 142.787 61.216C144.323 61.216 145.523 60.16 145.523 58.512C145.523 57.84 145.315 57.28 144.963 56.832L146.083 56.208L145.619 55.36L144.179 56.176C143.779 55.952 143.299 55.808 142.787 55.808C141.251 55.808 140.051 56.88 140.051 58.512ZM143.587 63.36C144.531 63.36 145.155 63.728 145.155 64.736C145.155 65.728 144.387 66.496 142.803 66.496C141.203 66.496 140.435 65.808 140.435 64.768C140.435 64.224 140.611 63.664 141.155 63.312C141.395 63.344 141.651 63.36 141.939 63.36H143.587ZM141.043 58.512C141.043 57.344 141.859 56.672 142.787 56.672C143.715 56.672 144.531 57.344 144.531 58.512C144.531 59.68 143.715 60.352 142.787 60.352C141.859 60.352 141.043 59.68 141.043 58.512ZM155.59 58.976C157.59 58.976 158.822 57.824 158.822 55.888C158.822 53.952 157.59 52.8 155.59 52.8H151.782V64H152.838V58.976H155.59ZM155.606 57.984H152.838V53.792H155.606C157.142 53.792 157.718 54.704 157.718 55.888C157.718 57.072 157.142 57.984 155.606 57.984ZM167.053 59.52C167.053 57.296 165.597 55.808 163.517 55.808C161.373 55.808 159.933 57.568 159.933 59.968C159.933 62.368 161.373 64.128 163.517 64.128C165.005 64.128 166.045 63.552 166.877 61.904L165.997 61.472C165.405 62.672 164.749 63.2 163.517 63.2C161.901 63.2 160.973 61.856 160.973 59.968H167.053V59.52ZM163.517 56.736C164.973 56.736 165.837 57.648 166.029 59.04H161.037C161.309 57.728 162.173 56.736 163.517 56.736ZM173.692 56.08C173.292 55.92 172.94 55.808 172.476 55.808C171.388 55.808 170.588 56.384 170.108 57.376V55.936H169.116V64H170.108V60.88C170.108 58.128 171.1 56.736 172.332 56.736C172.748 56.736 173.116 56.832 173.468 57.024L173.692 56.08ZM174.611 56.864H175.891V64H176.883V56.864H178.835V55.936H176.883V55.264C176.883 54.128 177.427 53.6 178.307 53.6C178.691 53.6 178.931 53.696 179.139 53.792L179.347 52.88C179.139 52.768 178.787 52.672 178.387 52.672C176.819 52.672 175.891 53.536 175.891 55.424V55.936H174.611V56.864ZM179.734 59.968C179.734 62.08 181.158 64.128 183.51 64.128C185.862 64.128 187.286 62.08 187.286 59.968C187.286 57.856 185.862 55.808 183.51 55.808C181.158 55.808 179.734 57.856 179.734 59.968ZM180.774 59.968C180.774 58.352 181.702 56.736 183.51 56.736C185.318 56.736 186.246 58.352 186.246 59.968C186.246 61.584 185.318 63.2 183.51 63.2C181.702 63.2 180.774 61.584 180.774 59.968ZM193.837 56.08C193.437 55.92 193.085 55.808 192.621 55.808C191.533 55.808 190.733 56.384 190.253 57.376V55.936H189.261V64H190.253V60.88C190.253 58.128 191.245 56.736 192.477 56.736C192.893 56.736 193.261 56.832 193.613 57.024L193.837 56.08ZM206.148 58.464C206.148 56.704 205.46 55.808 203.876 55.808C202.772 55.808 201.764 56.576 201.236 57.6C200.996 56.448 200.276 55.808 199.044 55.808C197.876 55.808 196.98 56.56 196.484 57.616V55.936H195.492V64H196.484V60.464C196.484 58.176 197.572 56.736 198.884 56.736C200.004 56.736 200.324 57.392 200.324 58.592V64H201.316V60.464C201.316 58.176 202.404 56.736 203.716 56.736C204.836 56.736 205.156 57.392 205.156 58.592V64H206.148V58.464ZM209.248 61.68C209.248 60.624 210.112 59.968 211.952 59.968H213.264V60.272C213.264 62.448 211.856 63.2 210.816 63.2C209.856 63.2 209.248 62.672 209.248 61.68ZM214.256 58.656C214.256 56.832 212.992 55.808 211.408 55.808C209.968 55.808 208.752 56.656 208.528 58.016L209.488 58.24C209.728 57.424 210.304 56.736 211.408 56.736C212.48 56.736 213.264 57.28 213.264 58.688V59.04H211.92C209.664 59.04 208.208 59.888 208.208 61.68C208.208 63.456 209.376 64.128 210.72 64.128C212 64.128 212.816 63.536 213.264 62.752L213.504 64H214.256V58.656ZM222.134 58.464C222.134 56.768 221.174 55.808 219.654 55.808C218.486 55.808 217.43 56.56 216.886 57.616V55.936H215.894V64H216.886V60.464C216.886 58.176 218.022 56.736 219.494 56.736C220.614 56.736 221.142 57.424 221.142 58.592V64H222.134V58.464ZM230.089 61.552C229.657 62.608 228.937 63.2 227.737 63.2C226.009 63.2 225.209 61.712 225.209 59.968C225.209 58.224 226.009 56.736 227.737 56.736C228.937 56.736 229.657 57.328 230.089 58.384L230.985 58.032C230.425 56.576 229.321 55.808 227.737 55.808C225.369 55.808 224.169 57.856 224.169 59.968C224.169 62.08 225.369 64.128 227.737 64.128C229.321 64.128 230.425 63.36 230.985 61.904L230.089 61.552ZM239.519 59.52C239.519 57.296 238.063 55.808 235.983 55.808C233.839 55.808 232.399 57.568 232.399 59.968C232.399 62.368 233.839 64.128 235.983 64.128C237.471 64.128 238.511 63.552 239.343 61.904L238.463 61.472C237.871 62.672 237.215 63.2 235.983 63.2C234.367 63.2 233.439 61.856 233.439 59.968H239.519V59.52ZM235.983 56.736C237.439 56.736 238.303 57.648 238.495 59.04H233.503C233.775 57.728 234.639 56.736 235.983 56.736Z" fill="#535353"/>
<path d="M80.848 30.464H85.712L80.608 39.136V40H88.288V38.336H83.04L88.08 29.664V28.8H80.848V30.464ZM93.2423 33.28C94.4423 33.28 95.0503 34.144 95.1943 35.04H91.2743C91.4503 34.032 92.1383 33.28 93.2423 33.28ZM96.9543 35.712C96.9543 33.904 95.8183 31.808 93.2423 31.808C90.5863 31.808 89.4823 34.048 89.4823 35.968C89.4823 37.888 90.5863 40.128 93.2423 40.128C95.0823 40.128 95.9943 39.376 96.7783 37.856L95.3543 37.296C94.9383 38.176 94.1063 38.656 93.2423 38.656C91.9303 38.656 91.2423 37.616 91.2423 36.432H96.9543V35.712ZM106.26 35.968C106.26 33.392 105.044 31.808 102.66 31.808C101.604 31.808 100.74 32.4 100.468 32.864V31.936H98.8038V43.264H100.468V39.104C100.836 39.632 101.636 40.128 102.628 40.128C105.044 40.128 106.26 38.464 106.26 35.968ZM104.5 35.968C104.5 37.632 103.636 38.656 102.436 38.656C101.236 38.656 100.372 37.632 100.372 35.968C100.372 34.304 101.236 33.28 102.436 33.28C103.636 33.28 104.5 34.304 104.5 35.968ZM106.853 33.408H108.197V37.248C108.197 39.232 109.317 40.128 110.837 40.128C111.285 40.128 111.701 40.048 112.133 39.84L111.701 38.432C111.413 38.608 111.221 38.656 110.933 38.656C110.197 38.656 109.861 38.256 109.861 37.344V33.408H111.957V31.936H109.861V28.672L108.197 29.712V31.936H106.853V33.408ZM113.124 35.968C113.124 38.24 114.596 40.128 117.092 40.128C119.588 40.128 121.06 38.24 121.06 35.968C121.06 33.696 119.588 31.808 117.092 31.808C114.596 31.808 113.124 33.696 113.124 35.968ZM114.884 35.968C114.884 34.608 115.636 33.28 117.092 33.28C118.548 33.28 119.3 34.608 119.3 35.968C119.3 37.328 118.548 38.656 117.092 38.656C115.636 38.656 114.884 37.328 114.884 35.968ZM122.726 28.672V40H124.39V28.672H122.726ZM126.128 37.68C126.128 39.36 127.264 40.128 128.608 40.128C129.744 40.128 130.576 39.68 131.104 38.944L131.264 40H132.672V34.992C132.672 32.624 131.328 31.808 129.456 31.808C127.904 31.808 126.752 32.672 126.416 34.032L127.936 34.352C128.208 33.632 128.784 33.28 129.44 33.28C130.288 33.28 131.008 33.68 131.008 34.688V35.04H129.616C127.552 35.04 126.128 36.016 126.128 37.68ZM127.888 37.68C127.888 36.912 128.528 36.432 129.552 36.432H131.008V36.608C131.008 38 129.92 38.656 128.896 38.656C128.192 38.656 127.888 38.224 127.888 37.68ZM142.048 35.968C142.048 33.472 140.832 31.808 138.416 31.808C137.616 31.808 136.624 32.304 136.256 32.832V28.672H134.592V40H136.256V39.072C136.528 39.536 137.392 40.128 138.448 40.128C140.832 40.128 142.048 38.544 142.048 35.968ZM140.288 35.968C140.288 37.632 139.424 38.656 138.224 38.656C137.024 38.656 136.16 37.632 136.16 35.968C136.16 34.304 137.024 33.28 138.224 33.28C139.424 33.28 140.288 34.304 140.288 35.968Z" fill="#535353"/>
<defs>
<clipPath id="clip0">
<rect width="62" height="45.9109" fill="white" transform="translate(308 22)"/>
</clipPath>
<clipPath id="clip1">
<rect width="105" height="41.1285" fill="white" transform="translate(434 22)"/>
</clipPath>
<clipPath id="clip2">
<rect width="75" height="41.1285" fill="white" transform="translate(603 22)"/>
</clipPath>
<clipPath id="clip3">
<rect width="145" height="41.1285" fill="white" transform="translate(742 22)"/>
</clipPath>
<clipPath id="clip4">
<rect width="248" height="45.9109" fill="white" transform="translate(951 22)"/>
</clipPath>
</defs>
</svg>
